<?xml version="1.0" standalone="no"?>
<!DOCTYPE svg PUBLIC "-//W3C//DTD SVG 20010904//EN"
 "http://www.w3.org/TR/2001/REC-SVG-20010904/DTD/svg10.dtd">
<svg version="1.0" xmlns="http://www.w3.org/2000/svg"
 width="768.000000pt" height="1024.000000pt" viewBox="0 0 768.000000 1024.000000"
 preserveAspectRatio="xMidYMid meet">

<g transform="translate(0.000000,1024.000000) scale(0.100000,-0.100000)"
fill="#000000" stroke="none">
<path d="M106 9703 c-11 -11 -6 -23 9 -23 8 0 15 4 15 9 0 13 -16 22 -24 14z"/>
<path d="M712 9680 c0 -14 2 -19 5 -12 2 6 2 18 0 25 -3 6 -5 1 -5 -13z"/>
<path d="M393 9669 c-4 -13 -11 -18 -21 -14 -15 5 -70 -9 -106 -27 -11 -6 -32
-11 -48 -12 -39 -3 -50 -16 -35 -46 15 -29 108 -81 114 -63 3 7 3 15 1 18 -2
2 14 16 34 30 34 23 47 25 157 27 129 3 145 9 112 47 -19 21 -41 28 -41 13 0
-5 -12 -14 -27 -21 -24 -11 -30 -10 -43 6 -17 20 -75 63 -86 63 -3 0 -8 -9
-11 -21z"/>
<path d="M2862 9618 c2 -15 11 -24 26 -26 20 -3 23 0 20 20 -2 15 -11 24 -26
26 -20 3 -23 0 -20 -20z"/>
<path d="M42 9457 l-22 -23 25 -24 c20 -19 25 -32 23 -60 -2 -29 -9 -38 -35
-49 -28 -12 -33 -20 -33 -48 l0 -33 38 18 c20 9 40 21 43 25 4 5 15 7 25 5 16
-3 19 -12 18 -62 -2 -67 -18 -104 -51 -112 -41 -11 -58 -79 -30 -119 25 -33
62 -13 92 50 15 30 31 52 37 49 5 -3 4 -12 -3 -20 -9 -12 -6 -14 19 -14 17 0
37 -3 46 -6 10 -4 17 2 21 19 8 29 45 52 72 43 10 -3 28 0 39 8 19 15 19 15
-1 30 -25 20 -39 20 -55 1 -7 -8 -20 -15 -30 -15 -10 0 -23 -6 -30 -14 -23
-28 -36 -7 -38 62 -2 58 1 71 17 86 11 10 18 22 16 26 -3 4 13 26 35 49 45 46
47 52 23 73 -25 22 -123 24 -123 3 0 -8 -3 -15 -8 -15 -13 0 -32 39 -26 54 7
17 -24 36 -59 36 -13 0 -33 -10 -45 -23z"/>
<path d="M2021 9371 c-23 -32 -27 -81 -9 -99 21 -21 29 -13 27 26 0 20 2 52 6
70 9 40 2 41 -24 3z"/>
<path d="M2253 9283 c-19 -7 -15 -58 6 -77 21 -19 51 -12 51 14 0 10 -7 23
-15 30 -8 7 -15 19 -15 26 0 14 -6 16 -27 7z"/>
<path d="M2110 9246 c0 -2 7 -9 15 -16 13 -11 14 -10 9 4 -5 14 -24 23 -24 12z"/>
<path d="M621 9138 c-12 -32 -6 -38 40 -38 38 0 40 2 37 28 -2 22 -8 28 -36
30 -26 3 -34 -1 -41 -20z"/>
<path d="M5870 9079 c-21 -5 -23 -7 -7 -14 9 -4 17 -11 17 -16 0 -11 -49 -5
-77 9 -13 7 -24 8 -27 3 -4 -5 0 -12 6 -14 8 -4 7 -6 -4 -6 -9 -1 -18 3 -20 8
-4 13 -88 32 -88 20 0 -5 -15 -9 -34 -9 -19 0 -38 -4 -41 -10 -4 -6 1 -7 11
-3 12 4 15 3 10 -5 -4 -7 -17 -10 -32 -6 -13 3 -24 2 -24 -3 0 -5 -20 -9 -43
-11 -24 -1 -55 -6 -68 -11 l-24 -10 23 0 c32 -1 17 -21 -16 -21 -20 0 -23 -3
-12 -9 8 -6 17 -8 21 -5 4 2 10 0 14 -6 6 -9 -29 -45 -79 -80 -19 -13 -20 -13
-8 2 8 9 9 19 4 22 -6 3 -15 -1 -22 -9 -7 -8 -27 -15 -44 -15 -34 -1 -107 -53
-92 -67 5 -4 11 -2 13 5 3 6 11 12 18 12 8 0 19 9 25 20 6 11 18 20 27 20 13
0 11 -6 -10 -28 -25 -26 -94 -61 -81 -41 9 15 -9 10 -31 -9 -11 -9 -26 -29
-32 -44 -7 -16 -18 -28 -24 -28 -7 0 -5 8 5 19 10 11 13 21 7 25 -5 3 -19 -6
-31 -21 l-22 -28 7 25 c4 14 19 35 33 48 13 13 21 26 17 30 -4 4 -10 1 -12 -6
-3 -6 -9 -9 -15 -6 -12 8 140 82 185 91 15 3 34 15 43 27 8 11 17 20 20 18 3
-2 8 -1 10 2 2 3 1 4 -3 1 -3 -3 -12 0 -20 7 -8 6 -13 7 -12 2 3 -19 -1 -34
-11 -34 -5 0 -10 10 -10 21 0 18 -2 19 -15 9 -11 -9 -19 -10 -28 -1 -10 8 -19
7 -33 -5 -18 -14 -18 -15 6 -9 24 6 24 6 5 -10 -12 -9 -21 -12 -23 -5 -6 17
-23 12 -94 -31 -38 -22 -74 -51 -80 -64 -6 -14 -15 -22 -20 -19 -4 3 -22 -4
-38 -16 -21 -15 -29 -27 -25 -40 3 -10 0 -20 -9 -23 -15 -6 -62 -87 -51 -87 3
0 -2 -14 -10 -31 -9 -17 -19 -28 -22 -25 -3 3 0 12 7 21 13 16 8 31 -7 22 -4
-3 -19 -28 -33 -56 -14 -28 -31 -51 -37 -51 -7 0 -15 -10 -18 -23 -4 -13 -13
-24 -21 -24 -12 0 -12 3 0 16 7 9 23 34 34 56 11 22 39 62 61 89 23 26 41 53
41 60 0 17 -43 -37 -117 -148 -47 -70 -73 -121 -89 -175 -12 -42 -29 -96 -38
-121 -9 -25 -19 -79 -22 -120 -5 -67 -3 -81 20 -130 27 -58 34 -128 17 -185
-4 -17 -5 -39 0 -50 4 -11 8 -15 9 -10 1 16 40 -38 40 -56 0 -9 13 -42 29 -74
17 -33 28 -62 25 -66 -5 -9 25 -21 37 -13 5 3 12 -2 15 -10 3 -9 10 -16 16
-16 5 0 6 5 2 11 -10 16 29 -6 46 -26 11 -13 11 -23 0 -54 -7 -22 -10 -52 -7
-68 20 -96 30 -142 37 -173 5 -19 16 -89 25 -155 15 -111 32 -169 74 -253 18
-37 39 -57 27 -26 -11 28 -36 124 -42 164 -3 18 -15 56 -25 84 -21 52 -30 107
-54 326 -14 118 -14 148 -1 250 8 63 15 139 15 167 0 29 6 62 13 74 26 43 180
86 213 59 8 -7 22 -9 31 -6 12 4 15 2 10 -9 -3 -8 0 -15 7 -15 22 0 -17 -20
-43 -21 l-25 -2 25 -4 c40 -8 53 -23 33 -39 -10 -7 -27 -14 -39 -14 -11 0 -43
-11 -71 -25 -39 -20 -56 -36 -77 -75 -15 -28 -23 -50 -17 -50 5 0 12 4 16 9 3
6 26 13 51 17 25 3 73 20 107 36 59 29 121 43 111 26 -3 -4 -14 -8 -24 -8 -11
0 -36 -17 -56 -37 -21 -21 -49 -46 -63 -55 l-26 -18 23 0 c54 0 155 82 169
138 3 15 13 32 22 39 14 11 15 15 1 40 -9 15 -30 33 -47 38 -18 6 -35 14 -39
18 -10 9 26 36 49 37 9 0 17 7 17 16 0 10 6 14 15 10 10 -4 15 1 15 14 0 22
-16 27 -23 8 -3 -7 -6 -3 -6 8 -1 12 -8 28 -17 35 -26 21 -120 14 -208 -15
-44 -14 -81 -24 -84 -22 -14 14 63 96 138 147 77 53 117 69 185 74 11 1 38 10
60 19 42 19 62 25 108 33 26 5 28 4 21 -22 -5 -20 -4 -26 5 -21 7 4 17 4 24
-2 15 -11 56 -9 81 5 25 14 74 -14 74 -42 0 -52 -7 -62 -50 -73 -45 -12 -118
-65 -118 -86 0 -7 13 -26 30 -43 28 -28 29 -32 17 -64 -7 -19 -16 -37 -21 -41
-22 -15 77 -118 106 -110 4 1 31 -8 60 -20 42 -17 74 -22 153 -22 90 -1 103 1
133 23 18 13 44 24 57 25 25 1 45 28 26 34 -6 2 -11 16 -11 31 0 19 -8 32 -25
41 -14 7 -25 17 -25 22 0 4 -7 8 -15 8 -8 0 -15 4 -15 8 0 9 -91 44 -97 38 -3
-2 12 -10 31 -17 20 -7 36 -19 36 -26 0 -7 8 -13 18 -13 13 -1 11 -4 -8 -15
-17 -9 -29 -10 -37 -3 -6 5 -53 11 -104 13 -50 3 -94 7 -97 9 -6 6 16 29 42
43 16 9 10 10 -30 7 -27 -2 -41 -1 -31 2 9 3 15 10 11 15 -3 5 3 12 13 15 10
3 27 10 37 16 11 6 46 13 78 16 58 5 94 -5 126 -35 7 -7 19 -13 25 -12 9 0 8
2 0 6 -16 6 -17 23 -3 23 6 0 28 -11 50 -25 22 -14 46 -25 54 -25 7 0 19 -13
26 -30 9 -21 19 -30 35 -30 12 0 30 -9 40 -20 14 -15 21 -17 32 -9 11 9 12 8
7 -5 -3 -9 -1 -16 5 -16 6 0 11 -9 11 -21 0 -11 6 -27 14 -34 21 -21 26 -98
17 -235 -8 -125 -24 -187 -42 -159 -5 9 -10 0 -15 -29 -3 -23 -10 -39 -15 -36
-18 11 -49 -8 -49 -29 -1 -26 -30 -70 -31 -46 0 8 -5 3 -11 -11 -11 -25 -11
-25 -15 -2 -5 23 -23 31 -23 9 0 -19 -42 -52 -62 -49 -12 2 -18 -3 -18 -17 0
-24 -18 -37 -45 -33 -12 2 -16 0 -9 -5 16 -12 25 -56 14 -73 -7 -12 -10 -11
-16 5 -7 18 -8 18 -14 -1 -6 -17 -8 -17 -19 5 -7 13 -13 50 -13 84 -1 45 -5
64 -19 78 -11 11 -19 23 -19 27 0 5 -14 9 -31 10 -18 0 -37 6 -42 11 -14 14
-60 14 -52 1 3 -5 1 -10 -4 -10 -6 0 -11 7 -11 15 0 18 -21 20 -39 3 -11 -10
-13 -10 -7 0 4 7 2 12 -6 12 -8 0 -21 9 -31 20 -13 15 -14 26 -7 46 6 14 10
37 10 52 l0 26 -20 -22 c-23 -25 -45 -29 -37 -8 3 8 -6 27 -19 41 -23 25 -30
27 -71 21 -46 -6 -98 -37 -85 -51 4 -5 -1 -5 -10 -2 -10 4 -18 2 -18 -3 0 -6
6 -10 13 -10 16 -1 -32 -40 -49 -40 -19 0 -18 14 2 31 15 12 14 15 -6 31 -23
18 -66 24 -86 10 -20 -13 -32 -47 -24 -67 9 -24 40 -53 40 -37 0 5 9 12 20 15
11 3 20 1 20 -4 0 -5 -4 -9 -8 -9 -5 0 -30 -27 -57 -59 -27 -33 -52 -58 -56
-55 -4 2 -9 -3 -13 -11 -3 -8 -12 -12 -21 -9 -8 4 -17 -1 -21 -10 -3 -9 -10
-13 -15 -10 -5 3 -12 -8 -15 -25 -4 -17 -10 -31 -15 -31 -16 0 -10 -79 10
-138 11 -31 22 -88 25 -127 10 -100 16 -136 24 -131 4 2 6 -20 5 -50 0 -30 2
-54 5 -54 4 0 20 -29 37 -65 16 -36 37 -68 47 -71 10 -3 16 -10 12 -15 -9 -15
17 -40 36 -34 13 4 22 -4 34 -27 22 -44 39 -70 52 -83 16 -14 27 -48 13 -39
-6 4 -15 1 -19 -7 -7 -10 -12 -10 -23 -1 -7 7 -17 8 -22 4 -4 -4 -5 7 -3 23 3
17 2 39 -2 50 -5 11 -9 15 -9 9 -2 -23 -31 -24 -40 -1 -38 99 -40 99 -38 -8 1
-55 -2 -109 -7 -120 -5 -14 -5 -16 2 -6 5 7 15 10 21 7 13 -8 15 -37 4 -52 -5
-5 1 0 11 11 19 20 19 20 13 -10 -3 -16 -1 -37 4 -46 4 -9 13 -50 20 -90 18
-124 86 -344 122 -398 110 -164 144 -195 166 -152 8 14 6 23 -11 37 -11 11
-31 35 -43 54 -12 20 -45 60 -72 90 -28 30 -58 71 -68 90 -17 34 -16 34 21
-10 22 -24 51 -55 65 -68 15 -13 42 -45 60 -73 33 -47 59 -69 59 -49 0 6 -3
10 -7 10 -5 0 -9 24 -10 53 -1 37 1 45 7 27 6 -21 8 -22 15 -8 4 9 4 21 1 27
-4 5 -2 12 4 16 16 10 23 -21 10 -45 -13 -25 -4 -42 10 -20 14 22 12 76 -3 89
-8 6 -16 9 -18 6 -13 -13 1 57 16 77 15 21 16 21 13 3 -2 -14 3 -21 20 -23 17
-3 22 2 22 17 0 12 5 21 10 21 6 0 10 7 10 15 0 24 57 39 90 24 11 -5 27 -7
68 -8 24 0 41 -4 38 -9 -2 -4 2 -16 10 -27 8 -10 14 -14 14 -8 0 7 -4 14 -10
18 -13 8 -1 35 17 35 10 0 13 -7 9 -22 -3 -13 -3 -17 0 -10 3 6 10 10 15 6 12
-7 42 23 35 34 -3 5 1 18 10 28 14 18 14 17 3 -6 -11 -23 -11 -24 6 -10 26 22
115 157 115 175 0 9 11 37 24 63 75 148 131 382 122 507 -3 44 -10 81 -14 83
-9 3 -7 25 4 80 3 15 10 22 18 19 14 -6 76 27 76 40 0 36 33 181 45 199 8 13
16 38 17 56 3 28 -1 34 -19 36 -21 3 -23 8 -23 72 0 55 3 69 17 74 13 6 14 9
5 15 -14 8 11 29 51 44 19 7 47 64 47 95 0 11 -23 43 -51 71 -46 47 -50 54
-37 69 10 11 12 25 7 42 -12 41 -10 50 9 50 22 0 62 -40 62 -63 0 -9 4 -18 9
-22 5 -3 12 -19 16 -35 4 -17 11 -30 16 -30 13 0 11 21 -6 54 -18 33 -19 46
-4 46 5 0 8 -3 5 -8 -2 -4 2 -18 10 -32 7 -14 13 -19 14 -12 0 7 4 11 9 8 5
-4 12 12 16 34 11 68 -39 123 -96 105 -10 -4 -19 -2 -19 4 0 19 72 25 101 9
l26 -15 22 67 c11 37 30 75 41 85 11 10 20 28 20 41 0 13 7 44 16 69 8 26 16
62 17 80 3 45 14 32 22 -25 4 -34 1 -54 -13 -82 -23 -44 -14 -51 10 -10 22 37
39 113 29 127 -13 16 -22 96 -13 109 19 23 20 71 4 99 -12 20 -14 30 -5 35 14
9 -6 62 -35 89 -73 69 -98 88 -116 89 -36 1 -66 15 -66 30 0 25 2 29 13 26 7
-1 4 4 -5 11 -10 8 -18 21 -18 30 0 9 -5 19 -10 22 -6 4 -7 11 -4 17 4 7 2 8
-5 4 -6 -4 -9 -12 -6 -17 4 -5 1 -9 -6 -9 -8 0 -10 13 -6 40 3 23 1 38 -4 34
-5 -3 -9 10 -9 29 0 22 -8 40 -22 54 -30 26 -68 36 -68 17 0 -24 -30 -16 -31
9 -1 21 -1 21 -8 -2 -10 -37 -28 -36 -36 1 -9 44 -37 108 -47 108 -4 0 -8 13
-8 29 0 42 -15 75 -47 105 -55 51 -45 21 12 -37 11 -11 15 -17 9 -14 -7 4 -14
0 -18 -8 -4 -11 -12 -7 -36 16 -16 17 -30 37 -30 44 0 8 -7 11 -19 8 -11 -3
-21 2 -24 11 -4 9 -17 16 -29 15 -13 0 -17 -3 -10 -6 6 -2 12 -9 12 -14 0 -6
-8 -5 -20 1 -11 6 -34 8 -51 5 -26 -5 -30 -3 -21 7 8 11 3 14 -28 14 -22 1
-37 -2 -34 -7 3 -5 3 -9 -1 -9 -3 0 -9 8 -13 18 -5 14 -13 17 -32 11z m-155
-129 c-3 -5 -11 -10 -16 -10 -6 0 -7 5 -4 10 3 6 11 10 16 10 6 0 7 -4 4 -10z
m245 -60 c0 -5 -4 -10 -10 -10 -5 0 -10 5 -10 10 0 6 5 10 10 10 6 0 10 -4 10
-10z m-561 -43 c-2 -1 -13 -9 -24 -17 -19 -14 -19 -14 -6 3 7 9 18 17 24 17 6
0 8 -1 6 -3z m-72 -63 c-3 -3 -12 -4 -19 -1 -8 3 -5 6 6 6 11 1 17 -2 13 -5z
m-317 -24 c-8 -5 -17 -7 -19 -4 -3 3 1 9 9 14 8 5 17 7 19 4 3 -3 -1 -9 -9
-14z m53 -22 c-10 -16 -28 -34 -40 -39 -13 -5 -23 -13 -23 -18 0 -5 -26 -36
-57 -68 -32 -33 -66 -77 -77 -99 -10 -21 -25 -51 -33 -67 -8 -15 -12 -31 -8
-36 3 -5 0 -13 -6 -17 -6 -3 -15 0 -20 7 -6 11 -12 6 -21 -18 -13 -34 -28 -44
-28 -19 0 13 26 51 63 91 10 11 24 34 31 50 12 27 94 142 135 188 72 83 120
108 84 45z m1386 -65 c1 -7 -6 -13 -14 -13 -16 0 -19 17 -8 46 6 16 7 16 14
-2 4 -10 8 -25 8 -31z m-1399 -33 c-8 -5 -19 -10 -25 -10 -5 0 -3 5 5 10 8 5
20 10 25 10 6 0 3 -5 -5 -10z m50 -59 c0 -5 -11 -12 -25 -15 -14 -4 -25 -11
-25 -17 0 -6 -4 -7 -10 -4 -5 3 -10 2 -10 -2 0 -9 -52 -43 -65 -43 -18 0 106
87 128 89 4 1 7 -3 7 -8z m1630 -256 c-1 -17 -40 36 -40 54 0 10 7 6 20 -14
11 -16 20 -34 20 -40z m-50 45 c0 -5 -2 -10 -4 -10 -3 0 -8 5 -11 10 -3 6 -1
10 4 10 6 0 11 -4 11 -10z m-765 -214 c16 -2 38 -26 31 -34 -4 -4 -38 -8 -76
-9 -57 -1 -68 1 -63 13 3 9 13 13 27 9 20 -6 20 -5 3 9 -18 14 -18 15 5 19 13
2 32 2 43 -1 11 -2 24 -5 30 -6z m-125 -42 c0 -2 -9 -4 -20 -4 -11 0 -20 4
-20 9 0 5 9 7 20 4 11 -3 20 -7 20 -9z m-12 -303 c3 -20 0 -22 -20 -16 -31 10
-33 12 -18 30 17 21 34 14 38 -14z m152 -11 c0 -5 -7 -10 -16 -10 -8 0 -12 5
-9 10 3 6 10 10 16 10 5 0 9 -4 9 -10z m-265 -20 c3 -5 1 -10 -4 -10 -6 0 -11
5 -11 10 0 6 2 10 4 10 3 0 8 -4 11 -10z m127 -14 c10 -16 -10 -20 -35 -8 -12
6 -35 15 -52 20 -24 8 -20 9 25 5 30 -4 58 -11 62 -17z m-684 -33 c0 -10 1
-25 3 -33 3 -11 -5 -16 -28 -18 -40 -4 -41 7 -7 42 32 31 33 31 32 9z m802 7
c11 -7 7 -10 -18 -10 -20 0 -31 4 -27 10 8 13 26 13 45 0z m527 -299 c19 -10
20 -65 2 -87 -24 -29 -49 -10 -49 37 0 10 5 19 10 19 6 0 10 10 9 23 0 21 -1
21 -9 2 -7 -17 -9 -14 -9 13 -1 30 1 32 14 18 9 -9 23 -20 32 -25z m-1045
-251 c15 0 28 -4 28 -10 0 -11 -24 -13 -69 -4 -26 5 -29 9 -20 21 9 10 15 11
23 3 5 -5 23 -10 38 -10z m58 10 c0 -5 -5 -10 -11 -10 -5 0 -7 5 -4 10 3 6 8
10 11 10 2 0 4 -4 4 -10z m-190 -57 c0 -14 -15 -30 -37 -42 -27 -14 -29 -9 -7
24 15 23 44 35 44 18z m360 -42 c0 -5 -8 -11 -18 -13 -10 -3 -26 -21 -35 -41
-22 -45 -31 -51 -87 -53 -25 -1 -56 -2 -70 -3 -16 -1 -29 -9 -35 -23 -6 -12
-26 -30 -45 -40 -33 -16 -35 -21 -32 -57 4 -37 25 -57 56 -52 5 1 5 -6 2 -16
-6 -14 -5 -16 5 -5 18 17 32 15 26 -3 -4 -8 -2 -17 3 -20 18 -11 10 -25 -15
-25 -14 0 -29 -8 -35 -21 -9 -15 -18 -19 -36 -15 -18 5 -22 3 -18 -9 4 -10 0
-15 -10 -15 -15 0 -17 8 -20 68 -1 9 -5 21 -11 25 -6 6 -6 10 3 14 8 3 3 16
-18 41 -21 26 -26 38 -17 44 9 5 7 8 -4 8 -18 0 -28 47 -24 110 1 28 6 36 25
38 13 2 33 10 44 17 12 8 90 21 181 30 87 9 161 18 164 20 8 8 21 6 21 -4z
m153 -74 c-3 -5 -10 -4 -16 2 -18 18 -29 12 -22 -11 l6 -23 -20 23 c-21 24
-33 29 -26 10 7 -17 -49 -48 -87 -48 -29 0 -30 1 -16 22 15 22 84 48 131 48
15 0 27 5 27 12 0 6 6 3 14 -7 8 -11 12 -24 9 -28z m223 -114 c-7 -7 -26 7
-26 19 0 6 6 6 15 -2 9 -7 13 -15 11 -17z m7 -43 c3 -11 1 -18 -4 -14 -5 3 -9
12 -9 20 0 20 7 17 13 -6z m-683 -414 c0 -11 -19 -15 -25 -6 -3 5 1 10 9 10 9
0 16 -2 16 -4z m20 -122 c0 -3 -7 -12 -15 -20 -16 -17 -18 -14 -9 10 6 15 24
23 24 10z"/>
<path d="M5515 7040 c3 -5 8 -10 11 -10 2 0 4 5 4 10 0 6 -5 10 -11 10 -5 0
-7 -4 -4 -10z"/>
<path d="M5380 8959 c0 -5 5 -7 10 -4 6 3 10 8 10 11 0 2 -4 4 -10 4 -5 0 -10
-5 -10 -11z"/>
<path d="M2581 8951 c-18 -12 -8 -37 18 -44 18 -4 21 -1 21 24 0 30 -13 36
-39 20z"/>
<path d="M5392 8938 c-7 -7 -12 -18 -12 -25 0 -8 7 -6 20 7 11 11 20 22 20 25
0 9 -16 5 -28 -7z"/>
<path d="M6287 8919 c7 -7 15 -10 18 -7 3 3 -2 9 -12 12 -14 6 -15 5 -6 -5z"/>
<path d="M6299 8890 c-13 -10 -19 -19 -12 -20 11 0 43 26 43 36 0 8 -8 4 -31
-16z"/>
<path d="M0 8441 l0 -123 33 7 c65 13 67 15 64 48 -1 18 -10 41 -20 52 -9 10
-23 37 -29 60 -6 22 -19 49 -30 60 -18 19 -18 16 -18 -104z"/>
<path d="M6582 8513 c26 -28 32 -29 19 -4 -6 10 -8 20 -6 23 2 2 -5 4 -15 4
-19 0 -18 -1 2 -23z"/>
<path d="M1100 8370 c0 -5 7 -10 16 -10 8 0 12 5 9 10 -3 6 -10 10 -16 10 -5
0 -9 -4 -9 -10z"/>
<path d="M1060 8325 c0 -9 5 -15 11 -13 6 2 11 8 11 13 0 5 -5 11 -11 13 -6 2
-11 -4 -11 -13z"/>
<path d="M1130 8330 c0 -5 -6 -9 -12 -7 -7 1 -14 -8 -16 -21 -3 -20 0 -23 19
-20 26 4 48 58 23 58 -8 0 -14 -4 -14 -10z"/>
<path d="M2680 8303 l0 -37 22 21 c18 18 19 24 8 37 -20 25 -30 19 -30 -21z"/>
<path d="M1417 8204 c-25 -14 -28 -20 -25 -62 2 -34 7 -47 18 -47 10 0 16 12
18 40 2 22 10 46 19 53 27 20 2 33 -30 16z"/>
<path d="M303 8172 c-36 -39 -37 -60 -10 -124 13 -31 15 -32 36 -19 9 6 23 5
36 -1 27 -12 82 10 77 32 -2 7 2 16 8 20 11 7 -24 119 -38 121 -4 0 -23 2 -42
4 -29 2 -39 -3 -67 -33z"/>
<path d="M1656 8197 c-13 -9 -16 -20 -11 -40 9 -36 18 -34 33 6 18 51 13 60
-22 34z"/>
<path d="M1517 8108 c-5 -19 19 -96 27 -87 2 2 6 22 9 44 5 33 3 43 -12 52
-16 10 -20 9 -24 -9z"/>
<path d="M0 8004 c0 -8 5 -12 10 -9 6 4 8 11 5 16 -9 14 -15 11 -15 -7z"/>
<path d="M1927 7990 c3 -11 12 -20 19 -20 20 0 17 18 -5 29 -16 9 -18 8 -14
-9z"/>
<path d="M1875 7954 c-16 -8 -40 -13 -52 -11 -17 3 -23 0 -23 -14 0 -10 4 -20
10 -24 5 -3 7 -11 5 -18 -2 -7 -7 -25 -9 -41 -3 -16 -17 -45 -30 -65 -17 -23
-22 -39 -16 -45 6 -6 10 -20 10 -33 0 -14 6 -23 15 -23 8 0 15 -4 15 -10 0 -5
9 -10 20 -10 11 0 20 -5 20 -12 0 -6 2 -9 5 -6 8 7 -27 88 -37 88 -5 0 -8 9
-8 20 0 11 5 20 10 20 5 0 9 -6 8 -12 -3 -13 5 -13 65 -1 21 4 26 9 21 22 -4
9 -6 25 -5 36 1 11 1 46 1 78 -1 34 3 57 9 57 6 0 11 5 11 10 0 14 -10 12 -45
-6z"/>
<path d="M6052 7908 c11 -22 22 -37 25 -34 8 8 -17 64 -32 69 -8 4 -6 -8 7
-35z"/>
<path d="M1610 7896 c0 -23 22 -41 34 -29 3 4 6 17 6 30 0 16 -6 23 -20 23
-14 0 -20 -7 -20 -24z"/>
<path d="M4481 7868 c-14 -37 33 -65 57 -35 9 10 7 19 -4 35 -20 28 -42 28
-53 0z"/>
<path d="M956 7864 c-3 -9 -1 -35 5 -57 8 -30 8 -42 0 -45 -15 -5 -14 -27 3
-41 8 -7 12 -20 9 -31 -5 -18 0 -19 56 -17 69 3 87 14 75 48 -11 30 -11 35
-13 84 -1 44 4 41 -112 71 -9 3 -19 -3 -23 -12z m58 -148 c-3 -9 -10 -16 -15
-16 -14 0 -11 28 4 33 16 6 19 3 11 -17z"/>
<path d="M2798 7673 c-16 -16 -28 -33 -28 -37 0 -5 14 -24 30 -43 37 -42 46
-28 34 53 l-9 56 -27 -29z"/>
<path d="M0 7515 c0 -80 1 -145 3 -145 2 0 22 9 45 20 44 22 53 43 25 59 -15
8 -15 11 -4 25 12 14 11 19 -5 31 -15 11 -17 16 -7 26 23 23 15 73 -15 102
-15 15 -31 27 -35 27 -4 0 -7 -65 -7 -145z"/>
<path d="M1255 7595 c-16 -15 -25 -36 -25 -55 0 -38 19 -39 61 -2 25 22 29 32
24 55 -9 34 -28 34 -60 2z"/>
<path d="M5460 7610 c0 -5 5 -10 10 -10 6 0 10 5 10 10 0 6 -4 10 -10 10 -5 0
-10 -4 -10 -10z"/>
<path d="M1470 7596 c0 -8 5 -18 10 -21 6 -3 10 3 10 14 0 12 -4 21 -10 21 -5
0 -10 -6 -10 -14z"/>
<path d="M580 7584 c0 -8 5 -12 10 -9 6 3 10 10 10 16 0 5 -4 9 -10 9 -5 0
-10 -7 -10 -16z"/>
<path d="M906 7552 c-3 -3 -6 -25 -6 -49 0 -35 3 -43 18 -43 10 0 28 -11 41
-24 19 -20 20 -26 9 -50 -9 -21 -9 -32 0 -47 15 -23 16 -99 2 -99 -6 0 -14 -8
-17 -17 -4 -10 -17 -26 -30 -36 -20 -16 -23 -27 -23 -86 0 -66 1 -68 40 -104
46 -41 48 -48 20 -87 -20 -29 -14 -45 13 -34 9 3 17 25 21 54 4 27 11 52 16
55 6 3 22 31 37 62 15 30 33 58 40 60 7 3 13 17 13 32 0 14 5 43 10 63 9 29 8
42 -4 60 -19 31 -5 67 34 81 38 14 42 26 25 73 -12 37 -16 39 -62 44 -35 4
-55 13 -75 33 -15 15 -33 27 -41 27 -8 0 -20 6 -26 14 -13 16 -47 27 -55 18z
m104 -182 c0 -5 -5 -10 -11 -10 -5 0 -7 5 -4 10 3 6 8 10 11 10 2 0 4 -4 4
-10z m-5 -139 c8 -14 -13 -24 -33 -16 -14 5 -14 7 -2 15 19 12 27 12 35 1z"/>
<path d="M1500 7550 c0 -5 5 -10 10 -10 6 0 10 5 10 10 0 6 -4 10 -10 10 -5 0
-10 -4 -10 -10z"/>
<path d="M6552 7470 c0 -19 2 -27 5 -17 2 9 2 25 0 35 -3 9 -5 1 -5 -18z"/>
<path d="M1470 7425 c-12 -36 -5 -60 24 -85 11 -9 16 -9 16 -1 0 9 5 9 20 1
11 -6 20 -17 20 -25 0 -11 -6 -12 -25 -5 -21 8 -25 6 -26 -8 -2 -31 2 -56 14
-84 17 -40 67 -39 114 2 18 17 38 30 43 30 17 0 11 23 -13 49 -13 15 -29 45
-36 68 -9 34 -18 44 -39 50 -15 3 -34 14 -43 25 -27 30 -56 23 -69 -17z"/>
<path d="M1322 7417 c-28 -29 -28 -44 -1 -52 14 -5 19 -13 16 -26 -3 -10 -4
-19 -2 -19 2 0 10 -3 19 -6 21 -8 21 19 1 36 -11 9 -13 23 -9 51 8 45 5 47
-24 16z"/>
<path d="M3270 7420 c0 -5 9 -14 21 -20 19 -11 20 -10 9 9 -11 22 -30 29 -30
11z"/>
<path d="M6541 7410 c-1 -14 -10 -36 -21 -50 -22 -28 -25 -40 -10 -40 16 0 41
60 37 88 -4 27 -4 27 -6 2z"/>
<path d="M4525 7377 c-5 -18 -3 -33 4 -40 18 -18 25 0 14 35 l-10 33 -8 -28z"/>
<path d="M2560 7365 c0 -8 9 -34 19 -57 11 -24 23 -56 26 -71 5 -24 8 -27 20
-17 23 19 18 68 -10 104 -14 18 -25 38 -25 44 0 7 -7 12 -15 12 -8 0 -15 -7
-15 -15z"/>
<path d="M670 7319 c0 -16 20 -49 29 -49 15 0 22 32 10 46 -14 17 -39 19 -39
3z"/>
<path d="M831 7294 c0 -11 3 -14 6 -6 3 7 2 16 -1 19 -3 4 -6 -2 -5 -13z"/>
<path d="M1355 7288 c5 -13 2 -15 -13 -11 -14 3 -29 -6 -53 -36 -18 -23 -40
-41 -50 -41 -10 0 -19 -11 -24 -27 -3 -16 -17 -39 -29 -53 -21 -23 -66 -132
-66 -159 0 -7 -12 -37 -26 -66 l-25 -55 25 -33 c18 -23 26 -46 26 -73 -1 -49
-18 -72 -56 -76 -32 -3 -45 -13 -62 -45 -18 -33 -14 -67 12 -113 22 -39 24
-40 40 -24 15 14 21 15 44 4 l27 -13 -35 -13 -35 -12 33 -1 c25 -1 32 -5 32
-21 0 -22 20 -26 38 -8 16 16 15 53 -5 143 -19 89 -12 113 37 129 28 9 36 18
47 55 7 24 17 49 23 56 8 10 8 19 0 35 -17 31 2 226 20 215 6 -3 7 1 3 10 -4
13 -1 16 18 13 16 -2 24 -10 25 -23 2 -46 4 -55 13 -55 10 0 30 82 29 120 0
14 5 54 12 89 11 60 10 65 -10 85 -16 16 -20 17 -15 4z"/>
<path d="M2450 7265 c0 -8 5 -15 10 -15 6 0 10 7 10 15 0 8 -4 15 -10 15 -5 0
-10 -7 -10 -15z"/>
<path d="M821 7255 c0 -11 -10 -34 -20 -52 -16 -25 -17 -32 -6 -36 28 -11 43
15 35 63 -4 25 -8 36 -9 25z"/>
<path d="M61 7196 c-7 -8 -23 -17 -36 -20 -22 -6 -25 -12 -25 -57 0 -48 1 -50
23 -43 40 12 53 31 54 84 2 54 1 57 -16 36z"/>
<path d="M690 7155 c0 -8 7 -15 15 -15 8 0 15 4 15 9 0 5 -7 11 -15 15 -9 3
-15 0 -15 -9z"/>
<path d="M4532 7060 c2 -32 7 -45 18 -45 23 0 23 39 0 66 l-20 24 2 -45z"/>
<path d="M2717 7021 c-11 -53 -9 -58 28 -75 21 -10 37 -26 41 -41 7 -29 20
-32 27 -7 2 9 8 25 12 34 5 13 -1 20 -27 31 -38 16 -64 43 -70 72 -3 15 -6 11
-11 -14z"/>
<path d="M4527 6903 c-3 -10 -8 -30 -11 -45 -4 -16 -13 -28 -21 -28 -12 0 -15
-15 -15 -67 0 -64 2 -69 27 -80 37 -18 40 -17 58 17 23 44 20 145 -6 186 -24
39 -26 40 -32 17z"/>
<path d="M1329 6835 c-12 -19 -25 -35 -31 -35 -5 0 -6 -6 -1 -12 4 -7 8 -40 8
-72 1 -36 6 -61 13 -64 6 -2 27 -14 45 -26 l34 -23 -3 113 c-1 63 -5 123 -9
134 -10 30 -33 24 -56 -15z"/>
<path d="M915 6748 c-4 -13 -8 -26 -10 -30 -1 -5 -3 -14 -4 -21 0 -8 -10 -24
-20 -36 -16 -19 -18 -26 -8 -42 9 -15 14 -16 23 -6 14 13 44 110 44 139 0 25
-16 23 -25 -4z"/>
<path d="M1540 6716 c0 -8 -3 -21 -6 -30 -9 -23 23 -21 35 2 7 13 6 23 -1 30
-16 16 -28 15 -28 -2z"/>
<path d="M721 6686 c-8 -10 -8 -16 2 -24 19 -16 68 -33 77 -27 13 8 1 35 -15
35 -7 0 -15 7 -19 15 -7 19 -30 19 -45 1z"/>
<path d="M1710 6645 c-20 -24 -6 -28 15 -5 10 11 13 20 8 20 -6 0 -16 -7 -23
-15z"/>
<path d="M2940 6585 c13 -14 26 -23 28 -20 7 7 -29 45 -41 45 -6 0 0 -11 13
-25z"/>
<path d="M1550 6523 c0 -28 16 -47 33 -40 9 3 18 1 21 -6 3 -9 5 -9 5 0 1 6
-6 18 -14 27 -8 8 -15 19 -15 25 0 6 -7 11 -15 11 -8 0 -15 -8 -15 -17z"/>
<path d="M2610 6511 c0 -12 5 -21 10 -21 6 0 10 6 10 14 0 8 -4 18 -10 21 -5
3 -10 -3 -10 -14z"/>
<path d="M2906 6443 c-28 -15 -28 -15 -7 -29 25 -18 26 -39 6 -86 -8 -19 -15
-53 -17 -74 -3 -36 -1 -39 26 -42 l29 -4 -6 46 c-4 26 -2 58 4 73 15 38 18
111 5 122 -7 6 -22 3 -40 -6z"/>
<path d="M1336 6429 c-14 -11 -26 -26 -26 -33 0 -6 -16 -26 -35 -45 -33 -30
-35 -37 -35 -95 0 -41 -6 -74 -19 -99 -14 -27 -16 -39 -8 -42 21 -6 101 -26
127 -32 20 -4 23 -3 13 7 -13 14 -6 43 8 34 5 -3 9 0 9 5 0 6 6 11 14 11 24 0
28 15 33 134 5 92 3 118 -11 144 -19 37 -34 40 -70 11z"/>
<path d="M2633 6351 l2 -63 43 -2 c49 -3 76 -29 61 -58 -5 -10 -16 -18 -24
-18 -18 0 -27 -14 -19 -33 11 -30 33 -27 50 5 29 55 -4 198 -45 198 -10 0 -21
-5 -23 -12 -6 -16 -27 -1 -38 26 -7 15 -9 3 -7 -43z"/>
<path d="M5315 6400 c3 -5 8 -10 11 -10 2 0 4 5 4 10 0 6 -5 10 -11 10 -5 0
-7 -4 -4 -10z"/>
<path d="M1540 6258 c0 -73 3 -143 6 -155 6 -20 8 -21 37 -9 18 8 47 20 65 28
31 13 33 17 38 73 12 138 13 130 -26 132 -25 1 -43 10 -62 32 -52 58 -58 47
-58 -101z"/>
<path d="M1795 6199 c-9 -28 5 -39 34 -28 23 9 23 10 6 29 -23 25 -32 25 -40
-1z"/>
<path d="M5235 6101 c-51 -53 -50 -62 2 -36 40 20 55 39 51 65 -3 18 -9 15
-53 -29z"/>
<path d="M6569 6075 c-25 -7 -95 -17 -156 -22 -106 -9 -112 -11 -155 -46 -25
-20 -52 -37 -60 -37 -9 0 -21 -7 -28 -15 -11 -13 -10 -14 4 -9 11 4 16 2 14
-6 -2 -8 10 -15 32 -17 29 -3 41 2 65 27 21 22 38 30 62 30 18 0 53 9 78 21
33 15 55 19 80 15 20 -4 33 -11 30 -17 -4 -5 -3 -9 2 -9 4 0 27 23 51 50 24
28 39 49 35 49 -4 -1 -29 -7 -54 -14z"/>
<path d="M4293 6046 c-22 -20 -26 -27 -16 -37 10 -10 17 -9 32 7 13 14 33 21
66 22 40 2 46 0 41 -15 -3 -10 -8 -30 -11 -44 -8 -32 -61 -47 -68 -20 -4 12
-5 12 -6 -3 -1 -12 -6 -16 -16 -12 -10 3 -17 -3 -22 -22 -11 -41 -7 -102 7
-115 9 -9 10 -4 5 24 -6 31 -3 39 16 53 35 24 139 21 192 -5 23 -12 106 -87
187 -168 187 -189 283 -262 296 -226 4 8 17 15 29 15 40 0 39 20 -4 64 -22 23
-41 49 -41 57 0 8 -18 26 -41 38 -60 34 -146 124 -212 223 -69 103 -131 150
-227 173 -101 23 -173 20 -207 -9z m150 -33 l-17 -28 23 23 c26 26 66 29 80 5
6 -10 11 -15 11 -10 0 4 14 1 30 -8 30 -15 30 -16 15 -45 -18 -35 -37 -38 -65
-10 -11 11 -20 16 -20 10 0 -14 -83 -7 -88 8 -2 7 1 12 8 12 6 0 8 -4 5 -10
-3 -5 -1 -10 4 -10 14 0 14 6 1 31 -11 20 2 59 21 59 5 0 2 -12 -8 -27z m202
-73 c16 -18 17 -23 5 -45 -15 -28 -30 -33 -30 -10 0 8 -9 15 -19 15 -18 0 -19
2 -5 30 18 35 25 37 49 10z m59 -83 c8 -21 6 -31 -7 -44 -13 -13 -19 -14 -31
-3 -19 15 -21 51 -4 68 17 17 31 10 42 -21z m32 -63 c-6 -22 -4 -25 14 -19 25
8 25 -3 0 -35 -16 -20 -20 -22 -20 -7 0 9 -4 17 -10 17 -5 0 -10 7 -10 16 0 8
-4 12 -10 9 -16 -10 -12 7 7 27 23 26 36 22 29 -8z m75 -64 c19 -18 21 -24 11
-40 -10 -17 -9 -18 23 -13 32 5 35 4 35 -20 0 -34 -18 -44 -35 -21 -7 11 -17
19 -22 20 -23 2 -44 18 -39 30 3 9 -2 14 -14 14 -11 0 -20 2 -20 5 0 4 32 45
36 45 0 0 12 -9 25 -20z"/>
<path d="M4475 5990 c-3 -5 -2 -10 4 -10 5 0 13 5 16 10 3 6 2 10 -4 10 -5 0
-13 -4 -16 -10z"/>
<path d="M4522 5973 c2 -9 10 -18 18 -20 12 -4 13 -3 1 5 -7 5 -10 15 -7 21 4
6 2 11 -4 11 -6 0 -10 -8 -8 -17z"/>
<path d="M4620 5931 c0 -5 5 -13 10 -16 6 -3 10 -2 10 4 0 5 -4 13 -10 16 -5
3 -10 2 -10 -4z"/>
<path d="M4668 5858 c-6 -16 1 -38 12 -38 15 0 19 28 6 40 -10 8 -15 7 -18 -2z"/>
<path d="M1370 6050 c0 -5 5 -10 10 -10 6 0 10 5 10 10 0 6 -4 10 -10 10 -5 0
-10 -4 -10 -10z"/>
<path d="M6214 6004 c-18 -14 -18 -15 4 -4 12 6 22 13 22 15 0 8 -5 6 -26 -11z"/>
<path d="M925 5980 c-33 -34 -29 -46 12 -32 22 7 36 5 65 -12 45 -26 58 -16
33 27 -33 57 -66 63 -110 17z"/>
<path d="M4367 6003 c-10 -9 -9 -23 2 -23 5 0 11 7 15 15 5 15 -5 20 -17 8z"/>
<path d="M870 5865 c0 -18 24 -30 39 -21 16 10 1 36 -20 36 -10 0 -19 -7 -19
-15z"/>
<path d="M5840 5830 c0 -5 7 -7 15 -4 8 4 15 8 15 10 0 2 -7 4 -15 4 -8 0 -15
-4 -15 -10z"/>
<path d="M1150 5758 c-30 -11 -56 -22 -58 -23 -7 -6 52 -106 67 -114 24 -12
79 -13 86 -1 4 6 -5 24 -20 42 -31 37 -29 58 8 76 23 11 26 16 16 28 -15 19
-33 17 -99 -8z"/>
<path d="M6635 5756 c-11 -6 -22 -12 -24 -13 -1 -1 3 -8 10 -16 11 -12 15 -10
26 11 16 30 14 33 -12 18z"/>
<path d="M2560 5751 c0 -7 -9 -9 -25 -5 -15 4 -25 2 -25 -4 0 -6 16 -14 35
-18 19 -3 38 -10 41 -15 9 -15 -25 -10 -72 11 -24 12 -50 17 -57 13 -7 -4 -20
-6 -29 -5 -10 2 -18 -2 -18 -9 0 -6 -8 -9 -20 -6 -13 3 -20 0 -20 -9 0 -11 -7
-13 -27 -8 -16 4 -25 3 -20 -1 4 -5 -5 -14 -20 -21 -36 -16 -5 -18 34 -2 23 9
155 16 368 18 29 0 29 1 10 15 -11 8 -26 19 -32 25 -7 6 -30 12 -50 15 -21 2
-46 7 -55 10 -11 4 -18 3 -18 -4z m106 -36 c18 -14 17 -15 -11 -9 -46 10 -65
23 -34 24 14 0 34 -7 45 -15z"/>
<path d="M5740 5750 c0 -5 5 -10 10 -10 6 0 10 5 10 10 0 6 -4 10 -10 10 -5 0
-10 -4 -10 -10z"/>
<path d="M1917 5709 c-26 -17 -47 -35 -47 -40 0 -4 -13 -23 -28 -41 -25 -29
-45 -62 -97 -168 -16 -31 -5 -165 18 -224 15 -41 30 -55 112 -110 54 -35 162
-82 171 -73 3 3 -23 20 -58 39 -66 35 -168 128 -168 153 0 8 -4 15 -8 15 -18
0 -34 93 -30 166 7 113 65 214 162 285 52 39 32 37 -27 -2z"/>
<path d="M2740 5712 c0 -4 9 -13 20 -20 11 -7 20 -9 20 -4 0 4 -9 13 -20 20
-11 7 -20 9 -20 4z"/>
<path d="M5710 5699 c0 -5 5 -7 10 -4 6 3 10 8 10 11 0 2 -4 4 -10 4 -5 0 -10
-5 -10 -11z"/>
<path d="M5760 5697 c0 -8 32 -67 36 -67 9 0 -8 44 -22 58 -8 7 -14 12 -14 9z"/>
<path d="M2730 5665 c0 -10 11 -15 35 -15 39 0 47 14 13 24 -36 9 -48 7 -48
-9z"/>
<path d="M2184 5655 c-10 -8 -14 -14 -9 -15 15 0 40 18 34 24 -3 3 -14 -1 -25
-9z"/>
<path d="M6641 5663 c-1 -6 -4 -20 -7 -30 -5 -17 -5 -17 6 0 6 10 9 23 6 30
-3 9 -5 9 -5 0z"/>
<path d="M2525 5639 c-83 -44 -120 -98 -112 -161 6 -44 28 -83 57 -98 18 -9
17 -7 -5 26 -51 76 -22 156 75 207 30 15 57 32 58 38 6 16 -32 10 -73 -12z"/>
<path d="M2841 5648 c0 -13 130 -81 138 -73 9 10 -28 40 -77 62 -61 27 -62 27
-61 11z"/>
<path d="M2235 5640 c-8 -13 5 -13 25 0 13 8 13 10 -2 10 -9 0 -20 -4 -23 -10z"/>
<path d="M2204 5605 c-10 -8 -14 -15 -8 -15 6 0 17 7 24 15 16 19 9 19 -16 0z"/>
<path d="M490 5601 c0 -17 18 -21 24 -6 3 9 0 15 -9 15 -8 0 -15 -4 -15 -9z"/>
<path d="M2148 5593 c-29 -34 -30 -48 -2 -21 15 15 26 30 23 33 -3 3 -13 -3
-21 -12z"/>
<path d="M5644 5586 c-9 -23 0 -51 16 -52 11 -1 11 0 2 3 -9 3 -12 15 -10 34
5 31 1 38 -8 15z"/>
<path d="M3942 5565 c-1 -16 5 -57 12 -90 18 -78 19 -41 2 50 -8 39 -14 57
-14 40z"/>
<path d="M5697 5560 c-3 -11 -2 -20 3 -20 12 0 21 28 11 35 -5 2 -11 -4 -14
-15z"/>
<path d="M473 5555 c-24 -27 -15 -52 26 -72 36 -18 41 -18 55 -5 14 14 12 18
-19 39 -19 13 -35 30 -35 38 0 19 -11 19 -27 0z"/>
<path d="M2169 5549 c-8 -15 -8 -19 0 -15 16 10 14 -9 -3 -23 -8 -6 -16 -21
-19 -32 -5 -20 -5 -20 14 -3 10 9 19 14 19 10 0 -12 -22 -50 -35 -61 -7 -5
-15 -30 -19 -55 l-6 -45 22 45 c28 57 27 55 35 47 4 -4 1 -13 -5 -19 -7 -7
-12 -38 -11 -72 1 -34 3 -53 6 -43 2 9 9 17 14 17 14 0 11 -58 -3 -63 -8 -3
-5 -6 6 -6 11 -1 16 -6 13 -15 -3 -8 1 -22 8 -33 15 -19 20 -11 16 27 -1 10 3
8 11 -5 12 -20 13 -26 16 -93 1 -19 7 -31 14 -30 7 2 12 -4 13 -12 0 -8 6 -25
14 -36 12 -19 17 -20 28 -8 20 19 37 18 57 -5 16 -18 16 -21 -11 -60 -28 -39
-48 -48 -48 -20 -1 8 -7 23 -14 34 -9 15 -11 16 -7 3 8 -28 -11 -21 -36 12
-12 17 -27 29 -32 27 -6 -2 -18 6 -28 17 l-17 21 -1 -23 c0 -24 78 -138 88
-128 3 4 -7 20 -23 36 -16 17 -24 30 -18 30 16 0 55 -51 49 -66 -2 -6 6 -22
20 -35 13 -12 24 -33 24 -45 0 -13 5 -26 10 -29 6 -3 10 -12 10 -20 0 -8 -17
4 -38 27 l-38 41 -32 -50 c-18 -27 -32 -57 -32 -66 0 -9 21 -45 46 -79 26 -35
56 -83 67 -108 11 -25 32 -63 47 -85 15 -22 35 -57 45 -77 9 -21 21 -38 26
-38 13 0 11 14 -6 36 -23 31 -17 36 14 13 16 -12 34 -18 40 -15 6 4 11 0 11
-9 0 -14 39 -38 49 -29 7 7 -22 94 -30 89 -4 -3 -11 0 -15 6 -4 7 -3 9 3 6 6
-4 14 0 17 9 4 10 -17 54 -56 117 -70 114 -108 208 -108 271 0 29 11 64 33
107 44 87 97 129 164 129 18 0 53 10 76 22 23 11 62 23 87 25 25 2 65 10 90
18 25 8 67 17 93 20 62 6 102 26 101 49 -1 9 0 15 3 12 3 -3 23 6 44 20 22 14
44 22 49 19 6 -4 10 3 10 14 0 12 5 21 11 21 6 0 17 6 25 14 18 18 54 15 89
-8 15 -10 29 -15 33 -12 3 3 0 6 -6 6 -7 0 -12 9 -12 20 0 11 -9 25 -20 32
-11 7 -20 18 -20 25 0 7 -9 17 -19 23 -11 5 -22 18 -25 28 -6 16 -85 82 -99
82 -3 0 -8 -19 -12 -41 -10 -60 -71 -117 -155 -147 -49 -17 -87 -22 -156 -22
-91 0 -200 23 -189 40 3 5 0 12 -6 16 -8 4 -9 3 -5 -4 5 -8 -2 -10 -24 -6 -20
4 -30 3 -30 -5 0 -22 -20 0 -21 22 -1 18 -2 19 -6 4 -7 -27 -25 -16 -46 26
-14 28 -16 41 -8 51 6 7 8 15 5 19 -10 9 -34 -4 -34 -19 0 -8 -6 -14 -13 -14
-7 0 -23 -9 -35 -20 -12 -11 -26 -20 -32 -20 -11 0 -6 -62 7 -83 4 -6 8 -20 8
-29 3 -32 14 -31 41 1 14 18 29 29 32 26 3 -3 -3 -11 -13 -19 -10 -7 -15 -18
-11 -24 11 -18 29 -14 22 4 -5 14 80 -49 96 -71 14 -20 -3 -17 -26 4 l-24 22
-16 -22 -16 -23 -32 31 c-18 17 -39 28 -45 26 -7 -3 -13 2 -13 10 0 7 -9 22
-20 32 -18 16 -20 16 -20 2 0 -10 5 -17 11 -17 5 0 16 -15 24 -32 17 -42 74
-110 71 -86 -1 10 -13 29 -26 43 -13 14 -21 28 -18 31 4 3 17 -8 29 -25 13
-18 28 -30 35 -27 10 4 54 -44 54 -58 0 -3 -10 -21 -22 -42 l-21 -37 -28 34
c-24 30 -29 32 -35 16 -6 -17 -8 -16 -31 5 -37 35 -72 106 -38 78 23 -19 19 6
-5 37 -15 19 -18 34 -14 63 4 25 1 48 -11 70 -18 34 -38 146 -39 213 0 42 -10
47 -27 16z m912 -175 c-7 -26 -41 -48 -41 -26 0 11 41 64 46 60 2 -2 0 -17 -5
-34z m-731 -14 c13 -11 20 -23 17 -27 -4 -3 -15 3 -25 15 -11 12 -23 18 -27
14 -5 -4 -5 -1 -1 6 9 16 9 16 36 -8z m-35 -20 c-3 -6 1 -13 9 -16 9 -3 16
-13 16 -22 0 -14 -4 -13 -21 5 -18 18 -20 43 -3 43 3 0 2 -5 -1 -10z m103 -42
c17 -18 42 -41 56 -51 14 -10 26 -23 26 -29 0 -7 -5 -7 -14 1 -8 7 -16 8 -18
4 -3 -4 -3 -2 -1 6 2 8 -2 11 -11 8 -11 -4 -13 -1 -9 10 4 10 2 14 -5 9 -6 -3
-13 3 -17 14 -5 17 -10 19 -21 9 -10 -8 -14 -8 -14 0 0 6 5 11 12 11 6 0 3 6
-7 14 -11 8 -26 12 -35 9 -13 -4 -13 -4 0 6 21 15 23 15 58 -21z m-93 -28 c3
-5 1 -10 -4 -10 -6 0 -11 5 -11 10 0 6 2 10 4 10 3 0 8 -4 11 -10z m218 -7
c-7 -2 -19 -2 -25 0 -7 3 -2 5 12 5 14 0 19 -2 13 -5z m95 -15 c20 -2 14 -14
-15 -27 -21 -9 -28 -9 -34 1 -4 6 -6 15 -3 19 2 4 -2 10 -8 13 -7 3 1 4 17 1
17 -3 36 -6 43 -7z m-174 -140 c-5 -8 -54 43 -54 58 0 4 13 -5 30 -21 16 -15
27 -32 24 -37z m-154 -70 c0 -6 -7 -5 -15 2 -8 7 -15 17 -15 22 0 6 7 5 15 -2
8 -7 15 -17 15 -22z m20 -153 c0 -21 -6 -16 -31 28 -9 16 -8 17 10 5 12 -7 21
-22 21 -33z m179 -429 c-3 -3 -11 5 -18 17 -13 21 -12 21 5 5 10 -10 16 -20
13 -22z m-45 -41 c3 -8 1 -15 -4 -15 -6 0 -10 7 -10 15 0 8 2 15 4 15 2 0 6
-7 10 -15z"/>
<path d="M2127 5504 c-4 -4 -7 -17 -7 -28 1 -19 1 -20 11 -3 11 19 8 43 -4 31z"/>
<path d="M1937 5452 c-4 -30 -5 -75 -1 -100 8 -59 52 -157 89 -200 34 -41 121
-85 153 -77 15 4 22 1 22 -9 0 -7 7 -19 15 -26 13 -11 14 -8 11 17 -4 42 -16
59 -28 42 -6 -10 -7 -6 -3 11 4 21 -2 30 -34 53 -22 15 -42 27 -46 27 -9 0
-75 49 -100 74 -38 38 -58 90 -64 166 l-7 75 -7 -53z"/>
<path d="M872 5479 c2 -7 10 -15 17 -17 8 -3 12 1 9 9 -2 7 -10 15 -17 17 -8
3 -12 -1 -9 -9z"/>
<path d="M7477 5456 c-13 -32 -7 -328 6 -322 7 2 37 15 67 28 63 26 70 34 68
68 l-1 25 -4 -25 c-3 -14 -9 -29 -13 -34 -5 -5 -7 0 -4 12 4 14 0 22 -15 27
-12 3 -21 10 -21 15 0 5 -10 21 -23 37 -26 32 -46 90 -49 148 -2 30 -5 35 -11
21z"/>
<path d="M5590 5451 c0 -5 7 -12 16 -15 14 -5 15 -4 4 9 -14 17 -20 19 -20 6z"/>
<path d="M1112 5420 c-15 -25 -15 -66 2 -105 l12 -30 27 29 c32 34 33 43 10
91 -19 40 -33 44 -51 15z"/>
<path d="M861 5361 c-24 -25 -48 -55 -52 -66 -13 -33 -10 -55 6 -55 35 0 74
-30 85 -67 7 -21 19 -46 27 -55 14 -16 17 -16 31 -1 19 19 19 128 -1 151 -7 8
-14 42 -17 76 -6 76 -20 79 -79 17z"/>
<path d="M3905 5315 c10 -49 45 -165 51 -165 9 0 -7 67 -32 132 -14 34 -22 50
-19 33z"/>
<path d="M1266 5301 c-4 -7 -5 -15 -2 -18 9 -9 19 4 14 18 -4 11 -6 11 -12 0z"/>
<path d="M4909 5283 c-13 -16 -12 -17 4 -4 9 7 17 15 17 17 0 8 -8 3 -21 -13z"/>
<path d="M2376 5232 c-3 -5 1 -9 9 -9 8 0 15 4 15 9 0 4 -4 8 -9 8 -6 0 -12
-4 -15 -8z"/>
<path d="M3830 5238 c0 -11 83 -179 86 -175 7 6 -46 132 -66 157 -11 14 -20
22 -20 18z"/>
<path d="M5920 5200 c-11 -11 -20 -26 -19 -32 0 -7 5 -3 11 8 5 12 20 27 32
32 11 6 15 11 9 11 -7 1 -22 -8 -33 -19z"/>
<path d="M4200 5184 c-12 -32 -12 -34 1 -34 5 0 8 4 4 9 -3 5 2 16 10 24 18
18 19 27 5 27 -6 0 -15 -12 -20 -26z"/>
<path d="M5929 5158 c-6 -13 -8 -20 -4 -16 4 4 15 -1 24 -10 9 -10 12 -12 8
-5 -10 14 -1 33 15 33 5 0 8 -7 4 -15 -3 -8 -1 -15 5 -15 6 0 9 10 7 23 -4 31
-43 35 -59 5z"/>
<path d="M7261 5173 c1 -18 38 -87 38 -74 1 21 -22 81 -31 81 -4 0 -8 -3 -7
-7z"/>
<path d="M4252 5150 c-7 -11 -27 -29 -45 -40 -32 -20 -32 -20 -6 -20 26 0 74
50 67 71 -2 5 -9 0 -16 -11z"/>
<path d="M1536 5088 c1 -24 6 -42 10 -41 12 2 22 36 16 52 -4 10 1 12 15 7 14
-4 23 -1 27 9 4 12 -3 15 -32 15 l-38 0 2 -42z"/>
<path d="M2380 5123 c0 -5 9 -18 20 -28 11 -10 20 -14 20 -8 0 5 -9 18 -20 28
-11 10 -20 14 -20 8z"/>
<path d="M1760 5111 c0 -9 32 -36 81 -67 23 -14 53 -38 67 -53 14 -14 22 -19
17 -11 -5 8 4 3 19 -12 16 -15 37 -30 49 -34 27 -9 137 -114 137 -132 0 -11 2
-11 14 0 7 8 16 36 19 63 3 28 11 62 17 77 22 48 9 58 -77 58 -92 0 -199 32
-287 85 -31 18 -56 30 -56 26z"/>
<path d="M5985 5074 c-18 -16 -22 -22 -9 -15 18 9 53 42 43 41 -2 -1 -17 -12
-34 -26z"/>
<path d="M6818 5093 c7 -3 16 -2 19 1 4 3 -2 6 -13 5 -11 0 -14 -3 -6 -6z"/>
<path d="M7166 5075 c-17 -26 -14 -29 19 -15 11 5 14 9 6 9 -11 1 -11 4 -1 16
7 9 8 15 2 15 -5 0 -17 -11 -26 -25z"/>
<path d="M954 5065 c-13 -13 -24 -35 -24 -48 0 -14 -6 -43 -14 -65 -19 -53
-27 -177 -13 -191 18 -18 34 -13 41 13 8 33 33 56 59 56 20 0 22 -4 19 -45 -5
-54 7 -57 32 -10 14 25 26 35 43 35 27 0 29 16 7 48 -18 26 -31 28 -55 6 -10
-9 -22 -13 -28 -10 -12 8 -3 94 11 113 11 14 6 60 -10 89 -18 34 -40 37 -68 9z"/>
<path d="M4595 5054 c-143 -23 -223 -42 -186 -43 18 -1 59 5 90 13 31 8 89 17
130 19 40 3 78 10 84 16 14 14 -12 13 -118 -5z"/>
<path d="M1200 5017 c-14 -7 -26 -20 -28 -29 -2 -12 5 -16 32 -15 32 1 36 4
36 29 0 31 -4 33 -40 15z"/>
<path d="M2065 5020 c11 -5 31 -9 45 -9 20 -1 22 1 10 9 -8 5 -28 9 -45 9 -26
0 -27 -2 -10 -9z"/>
<path d="M1302 4948 c5 -15 28 -23 28 -10 0 5 -7 13 -16 16 -10 4 -14 1 -12
-6z"/>
<path d="M2222 4875 c-18 -39 -14 -66 4 -32 13 25 18 27 32 15 12 -9 11 -5 -3
12 -11 14 -20 26 -21 28 0 1 -6 -9 -12 -23z"/>
<path d="M4400 4870 c8 -5 20 -10 25 -10 6 0 3 5 -5 10 -8 5 -19 10 -25 10 -5
0 -3 -5 5 -10z"/>
<path d="M2280 4847 c0 -8 7 -20 15 -27 12 -10 15 -10 15 3 0 8 -7 20 -15 27
-12 10 -15 10 -15 -3z"/>
<path d="M4430 4819 c-13 -9 -12 -10 2 -5 10 3 22 -2 27 -12 12 -19 14 -12 5
12 -7 19 -14 20 -34 5z"/>
<path d="M4373 4798 c0 -16 4 -28 9 -28 5 0 4 -10 -3 -21 -9 -17 -8 -20 2 -17
8 3 13 20 14 40 0 20 -3 34 -7 32 -3 -2 -8 2 -11 8 -2 7 -4 1 -4 -14z"/>
<path d="M6280 4800 c-12 -8 -10 -10 10 -10 33 0 65 -23 101 -73 29 -40 37
-38 20 5 -14 35 -71 88 -95 88 -11 0 -28 -5 -36 -10z"/>
<path d="M4270 4758 c-22 -36 -23 -42 -14 -75 7 -27 26 -30 45 -6 13 15 12 15
-8 5 -18 -10 -23 -9 -28 8 -7 21 19 80 35 80 6 0 10 5 10 10 0 21 -21 9 -40
-22z"/>
<path d="M6120 4761 c0 -5 7 -15 16 -22 59 -48 243 -380 244 -438 0 -8 6 -22
13 -30 20 -23 47 -111 34 -111 -6 0 -4 -6 5 -12 21 -16 41 -90 39 -146 0 -23
3 -41 8 -38 4 3 8 -1 8 -9 0 -10 -5 -11 -18 -4 -25 13 -32 11 -25 -6 3 -9 0
-15 -10 -15 -8 0 -12 -5 -9 -11 4 -6 20 -8 38 -4 22 4 28 3 18 -3 -8 -6 -10
-15 -6 -23 6 -9 4 -11 -8 -6 -10 4 -16 2 -14 -6 1 -7 -6 -11 -16 -10 -12 0
-16 -4 -13 -12 3 -9 0 -12 -10 -8 -25 9 -15 -13 11 -25 24 -11 24 -13 8 -31
-9 -11 -20 -18 -25 -15 -4 3 -8 0 -8 -5 0 -6 -5 -10 -11 -8 -6 1 -14 -4 -16
-10 -7 -20 13 -15 77 18 40 21 57 35 53 45 -3 8 0 14 6 14 6 0 11 7 11 16 0 8
-4 12 -10 9 -5 -3 -10 -1 -10 4 0 18 5 26 12 24 5 -2 8 2 8 8 0 6 7 8 16 5 12
-4 14 -1 9 14 -5 15 -3 18 9 14 15 -6 32 -61 22 -71 -3 -4 -6 -1 -6 5 0 7 -4
12 -10 12 -5 0 -7 -7 -4 -15 8 -20 34 -19 50 3 20 26 17 42 -8 42 -20 1 -21 2
-8 13 8 7 15 21 16 32 0 11 4 33 8 48 4 19 3 26 -4 22 -5 -3 -10 -2 -10 2 0
24 439 54 622 42 54 -3 142 0 208 7 63 8 145 16 183 20 l67 6 0 85 c0 68 -4
92 -20 118 -26 41 -129 127 -143 118 -5 -3 -7 -1 -3 5 3 6 -28 34 -74 66 -83
59 -90 62 -90 46 0 -5 6 -9 13 -7 6 1 12 -6 12 -16 0 -10 6 -21 12 -25 18 -11
46 -82 32 -82 -6 0 -3 -7 5 -16 20 -19 21 -35 2 -28 -11 4 -13 0 -9 -18 6 -23
6 -23 -15 -5 -12 11 -26 16 -33 11 -9 -5 -10 -2 -6 9 3 10 2 17 -3 17 -16 0
-21 -19 -10 -39 9 -18 6 -21 -32 -29 -26 -5 -42 -13 -40 -21 2 -10 -8 -11 -38
-6 -26 4 -40 3 -40 -4 0 -6 -9 -11 -19 -11 -11 0 -23 -9 -26 -20 -7 -22 -20
-26 -30 -9 -4 6 -13 8 -21 5 -8 -3 -14 -2 -14 3 0 9 -50 22 -85 22 -11 0 -39
0 -62 -1 -41 0 -142 22 -164 36 -8 4 -7 0 0 -15 9 -17 9 -21 -2 -21 -20 0 -40
27 -31 41 5 8 -2 10 -24 7 -20 -3 -33 0 -36 9 -3 7 -11 13 -18 13 -10 0 -10
-2 1 -9 7 -5 10 -14 7 -20 -11 -17 -23 -13 -29 9 -7 26 -23 25 -38 -1 -6 -12
-7 -19 -1 -15 11 6 9 -47 -3 -84 -4 -13 -2 -20 6 -20 7 0 5 -8 -7 -22 -19 -21
-19 -21 0 -14 18 6 19 5 4 -11 -8 -10 -13 -24 -10 -32 2 -7 -2 -18 -9 -23 -10
-7 -5 -8 16 -5 30 5 30 5 8 -10 -13 -9 -23 -22 -23 -29 0 -8 -6 -14 -12 -14
-10 0 -9 -3 1 -9 26 -16 -8 -22 -36 -6 -21 12 -23 14 -6 10 18 -5 22 -2 20 15
-1 12 -9 26 -19 31 -10 5 -18 14 -18 20 0 6 8 6 21 -1 11 -7 24 -8 27 -4 4 4
2 9 -4 11 -6 2 -20 10 -30 19 -18 13 -17 14 9 8 15 -3 27 -4 27 0 0 3 -12 12
-27 20 l-28 15 25 1 25 1 -22 11 c-13 6 -23 15 -23 20 0 5 10 6 23 2 l22 -6
-24 26 c-14 14 -21 26 -17 26 5 0 2 7 -5 16 -12 15 -11 16 11 9 l25 -8 -25 22
-25 21 28 -6 c36 -8 34 2 -4 21 -37 20 -33 30 7 15 30 -11 27 -6 -23 28 -16
11 -13 12 17 7 l35 -5 -30 13 c-16 8 -34 11 -39 6 -5 -4 -15 -5 -22 -2 -8 3
-21 0 -29 -7 -9 -7 -17 -11 -19 -9 -1 2 -31 58 -65 124 -74 141 -127 215 -183
255 -42 31 -58 37 -58 21z m350 -435 c0 -3 -4 -8 -10 -11 -5 -3 -10 -1 -10 4
0 6 5 11 10 11 6 0 10 -2 10 -4z m403 -73 c-7 -2 -19 -2 -25 0 -7 3 -2 5 12 5
14 0 19 -2 13 -5z m-173 -7 c0 -3 -4 -8 -10 -11 -5 -3 -10 -1 -10 4 0 6 5 11
10 11 6 0 10 -2 10 -4z m-124 -252 c8 3 16 1 19 -4 11 -17 -36 -22 -60 -6 -33
21 -32 28 2 15 14 -5 32 -8 39 -5z m4 -48 c-6 -8 -18 -12 -26 -9 -22 8 -16 18
12 21 22 2 24 0 14 -12z"/>
<path d="M4446 4751 c-3 -4 6 -19 19 -31 14 -13 25 -20 25 -15 0 5 5 4 12 -3
7 -7 20 -12 29 -12 28 0 11 39 -20 46 -14 3 -34 9 -43 14 -9 5 -19 6 -22 1z
m79 -31 c3 -6 -1 -7 -9 -4 -18 7 -21 14 -7 14 6 0 13 -4 16 -10z"/>
<path d="M4342 4713 c-6 -20 -7 -32 -2 -27 10 10 25 64 18 64 -3 0 -10 -16
-16 -37z"/>
<path d="M4286 4723 c-6 -14 -5 -15 5 -6 7 7 10 15 7 18 -3 3 -9 -2 -12 -12z"/>
<path d="M4427 4720 c3 -11 12 -20 21 -20 13 0 12 3 -3 20 -10 11 -19 20 -21
20 -1 0 0 -9 3 -20z"/>
<path d="M4397 4723 c-4 -3 -2 -12 5 -20 8 -10 8 -20 -1 -39 -15 -34 -14 -47
5 -40 8 3 13 2 10 -3 -3 -5 6 -11 21 -14 34 -6 52 15 44 52 -5 25 -6 25 -9 3
-2 -12 -8 -20 -13 -17 -5 3 -6 -1 -3 -9 8 -20 0 -20 -20 0 -10 10 -14 24 -10
40 4 17 1 26 -10 30 -9 3 -13 10 -10 15 6 10 0 12 -9 2z"/>
<path d="M4360 4670 c0 -31 27 -89 44 -96 8 -3 23 -1 33 5 16 9 15 10 -8 11
-26 0 -40 18 -54 69 -5 16 -4 21 4 17 6 -4 11 -2 11 3 0 6 -7 11 -15 11 -8 0
-15 -9 -15 -20z"/>
<path d="M4511 4648 c-10 -30 -9 -31 4 -14 8 11 15 26 15 33 0 22 -8 14 -19
-19z"/>
<path d="M5907 4669 c-26 -15 -20 -27 10 -21 22 4 34 -3 71 -44 29 -33 38 -39
26 -19 -40 68 -79 99 -107 84z"/>
<path d="M7320 4560 c0 -6 7 -10 15 -10 8 0 15 2 15 4 0 2 -7 6 -15 10 -8 3
-15 1 -15 -4z"/>
<path d="M75 4540 c-11 -5 -32 -9 -47 -9 l-27 -1 -1 -295 c0 -187 3 -295 9
-295 6 0 15 -9 21 -20 8 -15 6 -24 -9 -39 -19 -19 -20 -34 -20 -223 l0 -203
27 -31 c16 -20 44 -36 69 -43 23 -6 49 -18 57 -26 8 -8 19 -15 25 -15 17 0 13
-25 -8 -48 -17 -21 -58 -32 -47 -13 3 5 -1 12 -10 15 -23 9 -34 7 -34 -4 0 -5
7 -10 15 -10 8 0 15 -7 15 -15 0 -8 5 -15 11 -15 6 0 22 -9 36 -20 29 -23 43
-24 94 -10 23 6 39 18 42 30 3 12 14 20 27 20 13 0 27 11 38 32 23 43 102 128
119 128 7 0 19 -11 25 -25 9 -20 18 -25 48 -25 40 0 90 -31 90 -56 0 -25 18
-15 25 14 7 34 68 97 84 88 15 -10 14 -56 -3 -104 -8 -22 -12 -42 -10 -45 3
-3 1 -8 -5 -12 -6 -3 -11 1 -11 9 0 32 -28 15 -35 -20 -3 -20 -17 -47 -30 -60
-24 -24 -23 -34 6 -34 10 0 29 -4 43 -10 l26 -10 -20 -32 c-24 -40 -25 -61 -5
-78 9 -7 15 -27 16 -44 0 -61 4 -86 16 -90 7 -3 15 -1 18 5 4 5 10 7 15 4 19
-12 44 47 42 99 -4 101 -4 121 3 156 5 26 4 31 -4 20 -7 -10 -11 -11 -11 -2 0
8 -8 10 -23 7 -18 -5 -28 0 -41 20 -9 14 -14 30 -11 35 11 17 44 11 55 -10 21
-39 40 -24 40 30 0 56 23 110 69 162 41 48 87 144 116 245 14 48 42 133 61
188 20 55 41 116 47 135 6 19 26 64 45 100 19 36 58 119 87 184 l53 120 -23
18 c-19 15 -22 24 -17 63 6 58 -9 59 -66 5 -29 -28 -42 -49 -42 -68 0 -61 -85
-106 -124 -66 -22 22 -20 35 10 61 22 19 25 25 14 38 -20 24 -59 18 -88 -15
-29 -33 -53 -38 -72 -15 -7 8 -27 19 -44 23 -23 7 -31 14 -30 30 0 12 -3 22
-8 22 -4 0 -8 -8 -8 -19 0 -14 -6 -17 -23 -14 -31 6 -53 -19 -32 -37 32 -27
10 -90 -32 -90 -25 0 -25 2 -20 46 l5 45 -47 -3 c-46 -3 -46 -3 -46 -40 0 -28
-7 -44 -27 -63 l-28 -25 -15 36 c-8 20 -15 42 -15 49 0 22 -13 25 -27 5 -8
-11 -21 -20 -29 -20 -23 0 -103 -60 -109 -82 -8 -22 -67 -25 -84 -4 -6 8 -24
19 -40 26 -48 19 -68 95 -35 131 14 16 14 20 0 48 -9 17 -27 33 -41 37 -13 3
-29 12 -36 20 -13 16 -16 16 -44 4z m25 -244 c0 -3 -4 -8 -10 -11 -5 -3 -10
-1 -10 4 0 6 5 11 10 11 6 0 10 -2 10 -4z m536 -62 c31 -26 67 -46 80 -46 21
0 23 -4 18 -32 -3 -17 -5 -44 -4 -60 0 -16 -5 -33 -12 -38 -20 -12 -68 -9 -68
5 0 13 -31 29 -97 48 -47 13 -51 23 -27 58 12 16 14 34 10 61 -6 38 0 47 31
49 7 1 38 -20 69 -45z m-427 -35 c-25 -19 -39 -17 -39 6 0 7 10 15 23 17 35 6
42 -3 16 -23z m441 -174 c0 -18 -5 -25 -20 -25 -25 0 -38 29 -19 41 25 15 39
10 39 -16z m-130 -344 c0 -11 5 -23 10 -26 6 -3 10 -35 10 -70 0 -59 -2 -66
-27 -82 -16 -10 -31 -22 -35 -28 -5 -6 -8 -3 -8 7 0 18 -78 98 -96 98 -6 0
-17 6 -23 13 -8 11 -1 21 33 45 24 18 49 32 54 32 5 0 15 7 22 15 19 23 60 19
60 -4z"/>
<path d="M3790 4491 c0 -6 5 -11 10 -11 6 0 10 -8 10 -18 0 -10 6 -24 12 -30
7 -7 13 -26 14 -43 2 -38 31 -71 56 -63 11 3 20 0 24 -10 3 -9 13 -16 21 -16
13 0 13 3 3 15 -11 13 -10 14 4 9 23 -9 20 9 -4 24 -12 7 -17 18 -13 27 3 9 2
15 -3 13 -5 -1 -29 18 -54 43 -59 58 -80 75 -80 60z"/>
<path d="M3680 4471 c0 -6 5 -13 10 -16 6 -3 10 1 10 9 0 9 -4 16 -10 16 -5 0
-10 -4 -10 -9z"/>
<path d="M2540 4423 c1 -5 7 -19 15 -33 8 -14 14 -37 15 -51 0 -31 39 -114 40
-85 0 25 -17 79 -43 134 -19 40 -27 51 -27 35z"/>
<path d="M6117 4405 c3 -11 12 -29 20 -40 10 -16 13 -16 13 -3 0 9 -9 26 -20
39 -17 21 -19 21 -13 4z"/>
<path d="M6510 4410 c8 -5 22 -9 30 -9 10 0 8 3 -5 9 -27 12 -43 12 -25 0z"/>
<path d="M528 4404 c6 -3 12 -12 12 -21 0 -8 6 -13 13 -10 22 7 13 32 -13 34
-14 1 -19 0 -12 -3z"/>
<path d="M3355 4390 c-9 -14 -1 -34 65 -185 32 -71 70 -167 86 -212 27 -80 27
-83 9 -103 -11 -12 -31 -20 -51 -20 -18 0 -36 -4 -39 -10 -3 -5 -11 -10 -16
-10 -6 0 -7 5 -4 10 3 6 2 10 -3 10 -11 0 -25 -30 -17 -38 3 -3 16 0 29 6 19
8 26 8 30 -1 3 -8 7 -9 13 -2 12 15 54 37 59 32 6 -6 14 -93 20 -233 l6 -111
-32 0 c-21 0 -40 -9 -58 -27 -18 -18 -21 -25 -9 -20 25 9 21 -11 -5 -24 -13
-6 -17 -11 -10 -11 27 -2 0 -21 -29 -21 -23 0 -32 6 -39 28 -6 15 -15 36 -20
47 -5 11 -14 40 -19 65 -6 25 -20 72 -31 105 -12 33 -24 68 -27 78 -3 9 -10
17 -15 17 -6 0 -8 -6 -5 -14 3 -8 20 -74 37 -148 18 -73 36 -141 41 -150 5
-10 9 -28 9 -40 0 -39 12 -68 26 -68 8 0 14 -7 14 -16 0 -9 -5 -12 -11 -8 -13
8 -7 -24 13 -73 6 -15 12 -34 14 -41 4 -20 14 -28 15 -11 0 8 4 6 9 -6 l9 -20
0 20 c1 33 43 74 71 70 100 -15 110 -14 110 8 0 17 6 11 25 -21 38 -67 66
-103 75 -97 11 7 0 45 -14 45 -6 0 -20 15 -32 33 -54 82 -64 109 -65 165 0 31
-4 80 -8 107 -32 201 -43 315 -36 370 6 51 9 56 16 36 5 -13 10 -41 11 -62 1
-22 5 -39 9 -39 17 0 29 -41 64 -210 20 -102 35 -203 35 -244 0 -88 27 -189
48 -181 10 3 12 0 8 -10 -11 -29 29 -15 42 15 8 17 20 30 28 30 9 0 44 10 80
22 64 23 64 23 66 63 0 22 2 54 3 70 1 17 -2 57 -6 90 -18 139 -30 360 -20
363 6 2 11 11 11 20 0 15 -2 15 -10 2 -9 -13 -10 -13 -10 1 0 8 16 23 35 32
20 9 39 27 44 39 8 22 9 21 15 -9 7 -29 10 -32 27 -23 10 6 19 15 19 20 0 6 9
19 20 30 12 12 18 25 15 29 -2 5 1 11 8 14 7 3 20 -8 30 -25 9 -16 12 -26 7
-23 -12 8 -13 -5 -1 -24 6 -9 11 -10 15 -2 12 18 26 2 26 -29 0 -23 -4 -28
-20 -27 -11 1 -20 5 -20 10 0 4 -4 6 -9 2 -5 -3 -12 3 -14 12 -3 10 -5 3 -4
-16 2 -39 35 -68 82 -73 28 -3 30 -1 29 30 -1 17 1 32 5 32 3 0 20 -21 38 -46
l32 -46 11 43 c6 24 19 63 30 87 27 58 18 53 -19 -10 -18 -31 -31 -45 -31 -34
0 12 -5 16 -16 12 -8 -3 -12 -2 -9 4 3 6 -2 23 -11 40 -13 21 -20 26 -26 17
-6 -9 -8 -9 -8 0 0 6 5 15 10 18 13 8 13 35 0 35 -12 0 -90 81 -91 95 -1 12
-109 99 -109 87 0 -4 6 -14 13 -22 6 -8 2 -6 -10 4 -19 16 -21 22 -11 34 11
13 10 14 -8 8 -17 -5 -28 1 -48 24 -14 18 -26 39 -26 47 0 18 -28 42 -49 43
-7 0 -29 14 -48 30 -25 22 -44 30 -73 30 -33 0 -38 -3 -33 -17 14 -39 54 -93
69 -93 8 0 40 -24 71 -52 l55 -53 -18 38 c-10 20 -15 40 -11 43 10 11 38 -17
35 -35 -2 -9 3 -15 11 -13 9 2 11 -3 7 -14 -5 -14 -4 -15 8 -5 11 9 14 8 12
-6 0 -11 5 -17 15 -15 18 3 46 -25 35 -35 -3 -4 -13 2 -20 13 -14 18 -15 18
-21 2 -11 -28 2 -48 30 -48 28 0 28 4 11 -104 0 -5 5 -11 13 -14 10 -3 13 1 9
16 -5 18 -3 19 12 10 17 -11 17 -12 -4 -29 -18 -15 -22 -15 -29 -3 -4 8 -18
14 -30 14 -13 0 -28 5 -34 11 -15 15 -64 3 -57 -14 7 -18 -25 -52 -66 -71 -19
-9 -27 -14 -18 -12 25 7 12 -17 -15 -29 -30 -14 -23 -30 13 -29 17 1 30 -2 30
-7 0 -5 -16 -9 -36 -9 -19 0 -33 -4 -30 -9 3 -5 15 -7 25 -4 10 3 22 0 25 -6
5 -7 -8 -12 -36 -12 -32 -2 -36 -3 -14 -6 48 -8 74 4 78 35 2 19 9 27 23 27
11 0 21 -8 23 -17 2 -12 -1 -16 -10 -13 -9 4 -14 -2 -15 -16 -2 -16 1 -18 12
-9 25 21 31 -102 10 -182 -2 -5 -3 -17 -4 -28 0 -11 -8 -20 -16 -20 -17 0 -20
-16 -5 -25 16 -10 -28 -65 -51 -65 -10 0 -19 -5 -19 -10 0 -7 14 -8 38 -4 28
5 34 4 26 -5 -6 -7 -30 -11 -55 -9 -33 2 -46 8 -54 24 -6 12 -16 28 -22 35 -6
8 -16 46 -22 84 -16 103 -30 166 -40 179 -9 12 -49 126 -54 154 -2 9 -11 31
-20 49 -9 18 -17 37 -17 43 0 6 -9 30 -20 52 -11 23 -20 47 -20 54 0 6 -7 17
-15 24 -8 7 -15 21 -15 32 0 12 -4 17 -12 12 -7 -5 -9 -2 -5 9 3 9 3 17 -2 19
-13 6 -81 139 -75 149 3 5 0 8 -6 7 -7 -2 -17 11 -24 28 -7 20 -16 29 -25 26
-10 -3 -12 0 -8 12 7 18 2 22 -8 6z m488 -1027 c-13 -2 -35 -2 -50 0 -16 2 -5
4 22 4 28 0 40 -2 28 -4z m-65 -64 c-10 -7 -11 -9 0 -9 7 0 10 -4 7 -10 -11
-17 -21 -11 -23 15 -1 18 2 23 14 18 13 -5 13 -7 2 -14z"/>
<path d="M2976 4381 c-4 -6 0 -18 8 -27 9 -9 13 -21 9 -27 -4 -7 -6 -20 -5
-29 2 -11 -3 -18 -12 -18 -9 0 -16 9 -16 20 0 11 -4 20 -9 20 -10 0 -3 -70 8
-81 7 -7 115 -29 120 -24 4 5 -68 147 -84 163 -9 10 -15 11 -19 3z"/>
<path d="M6600 4339 c0 -5 5 -7 10 -4 6 3 10 8 10 11 0 2 -4 4 -10 4 -5 0 -10
-5 -10 -11z"/>
<path d="M2606 4317 c3 -10 9 -15 12 -12 3 3 0 11 -7 18 -10 9 -11 8 -5 -6z"/>
<path d="M6160 4324 c0 -7 9 -31 20 -55 11 -24 20 -37 19 -29 0 18 -38 100
-39 84z"/>
<path d="M7170 4321 c0 -16 25 -30 39 -22 11 7 9 11 -7 20 -25 13 -32 14 -32
2z"/>
<path d="M7115 4310 c3 -5 10 -10 16 -10 5 0 9 5 9 10 0 6 -7 10 -16 10 -8 0
-12 -4 -9 -10z"/>
<path d="M2555 4270 c-4 -6 -4 -14 -1 -17 3 -3 1 -13 -4 -23 -5 -9 -11 -53
-14 -96 -3 -43 -3 -73 0 -65 4 8 13 -1 24 -25 16 -34 18 -36 19 -14 0 14 -6
34 -14 44 -8 11 -15 29 -15 40 0 17 4 14 21 -14 15 -25 27 -76 42 -185 11 -82
20 -163 20 -180 -1 -16 -2 -102 -3 -190 -2 -187 6 -469 14 -505 3 -14 9 -43
14 -65 5 -22 13 -49 19 -60 6 -11 16 -46 23 -78 6 -31 16 -55 21 -52 5 4 9 0
9 -8 0 -7 11 -23 24 -34 l24 -21 4 39 c2 22 -1 44 -6 49 -6 6 -5 20 4 37 7 16
12 39 11 52 -2 15 1 21 9 16 8 -5 10 5 5 38 -7 48 12 157 27 157 5 0 6 5 3 10
-3 6 -2 10 3 10 5 0 12 14 16 30 4 20 11 30 24 30 21 0 36 -52 48 -165 10 -99
12 -107 19 -132 4 -13 11 -20 16 -17 5 3 9 -5 9 -18 0 -17 -3 -19 -9 -9 -5 8
-11 9 -15 3 -3 -5 1 -13 10 -16 25 -10 34 -7 34 9 0 9 7 18 15 21 12 5 14 31
12 156 -2 135 -5 151 -22 164 -17 13 -17 14 -1 14 10 0 14 5 11 11 -4 6 2 13
14 16 12 3 21 9 21 13 0 14 -44 20 -52 7 -5 -8 -8 -4 -8 10 0 12 -6 23 -12 25
-7 3 7 8 31 12 49 7 46 17 -11 35 -61 20 -94 58 -132 156 -19 50 -47 137 -63
195 l-28 105 -10 -65 c-10 -61 -12 -63 -19 -33 -4 19 -2 55 5 87 11 50 9 64
-16 163 -15 59 -31 112 -36 118 -5 5 -9 20 -9 35 0 14 -5 32 -10 40 -13 20
-14 -39 -1 -73 6 -16 6 -50 -1 -94 -6 -37 -10 -85 -10 -106 1 -21 -3 -48 -7
-60 -6 -15 -8 -2 -9 43 -1 74 -32 250 -44 250 -4 0 -5 14 -1 31 4 22 0 38 -16
59 -22 30 -28 60 -12 60 5 0 13 -9 16 -20 7 -21 25 -28 25 -10 0 6 -4 10 -9
10 -5 0 -15 14 -24 31 -9 20 -17 27 -22 19z m21 -107 c15 -20 18 -43 6 -43 -8
0 -32 43 -32 55 0 11 14 4 26 -12z m164 -533 c0 -5 -4 -10 -10 -10 -5 0 -10 5
-10 10 0 6 5 10 10 10 6 0 10 -4 10 -10z m240 -320 c0 -5 -4 -10 -10 -10 -5 0
-10 5 -10 10 0 6 5 10 10 10 6 0 10 -4 10 -10z m30 -315 c0 -8 -4 -15 -10 -15
-5 0 -10 7 -10 15 0 8 5 15 10 15 6 0 10 -7 10 -15z"/>
<path d="M4215 4229 c-4 -6 -5 -12 -2 -15 2 -3 7 2 10 11 7 17 1 20 -8 4z"/>
<path d="M6207 4195 c3 -16 10 -37 14 -46 15 -30 59 -172 65 -211 4 -25 3 -38
-5 -38 -6 0 -11 -6 -11 -13 0 -8 -13 -26 -30 -40 -16 -15 -30 -34 -30 -42 0
-8 -9 -19 -20 -25 -11 -6 -17 -16 -14 -22 4 -6 3 -8 -4 -4 -12 7 -87 -77 -87
-99 0 -9 -13 -22 -29 -30 -25 -13 -27 -13 -22 0 3 8 1 15 -4 15 -5 0 -12 -9
-15 -20 -7 -22 -25 -27 -25 -7 -1 6 -8 -1 -17 -18 -10 -16 -16 -33 -15 -37 1
-4 -8 -12 -21 -18 -21 -10 -21 -10 -3 4 18 14 17 15 -4 13 -13 -1 -26 -11 -31
-23 -8 -24 -99 -92 -99 -75 0 5 4 21 10 35 12 33 -2 34 -20 1 -7 -13 -16 -22
-21 -20 -4 3 -9 -3 -12 -12 -3 -14 -6 -11 -11 10 -5 15 -12 27 -18 27 -5 0 -7
-8 -3 -19 3 -12 -3 -30 -20 -49 -14 -16 -25 -33 -25 -36 0 -3 -8 -15 -17 -26
-10 -11 -18 -26 -18 -33 0 -7 -9 -11 -19 -9 -10 2 -15 -1 -12 -7 9 -14 -22
-73 -34 -66 -6 3 -7 0 -5 -7 3 -8 -4 -23 -15 -35 -11 -12 -20 -27 -20 -33 0
-6 -5 -8 -12 -4 -7 4 -8 3 -4 -4 4 -7 1 -12 -7 -12 -8 0 -18 -12 -21 -26 -4
-16 -12 -24 -20 -21 -20 8 -81 -38 -95 -71 -10 -25 -18 -29 -57 -31 -28 -1
-55 4 -70 13 -13 9 -35 16 -48 16 -20 0 -26 6 -31 33 -8 41 -1 58 85 213 73
131 120 199 183 267 19 20 31 37 27 37 -5 0 -6 9 -3 20 4 13 15 21 32 22 16 0
9 4 -19 8 -25 4 -35 8 -22 8 14 1 22 8 22 20 0 10 -3 13 -8 6 -4 -6 -18 -15
-32 -19 -32 -10 -60 -34 -60 -53 0 -9 -3 -13 -6 -9 -17 17 -101 -108 -193
-286 -8 -15 -18 -27 -23 -27 -4 0 -8 -7 -8 -16 0 -33 -70 -117 -107 -128 -13
-4 -23 -12 -23 -18 0 -29 -31 -46 -73 -41 -23 3 -46 9 -52 13 -5 4 -26 10 -46
14 -49 9 -67 47 -49 103 18 55 67 149 155 298 107 182 137 247 130 278 -5 19
-11 24 -23 20 -22 -9 -30 -20 -43 -68 -6 -22 -18 -48 -26 -57 -8 -9 -12 -21
-9 -27 8 -12 -28 -83 -73 -151 -17 -25 -31 -51 -31 -57 0 -7 -4 -13 -10 -13
-5 0 -10 -6 -10 -14 0 -8 -4 -16 -8 -18 -5 -1 -23 -31 -42 -65 -18 -35 -37
-63 -41 -63 -5 0 -9 -10 -9 -21 0 -17 -3 -19 -14 -10 -11 10 -16 8 -21 -8 -3
-10 -12 -22 -20 -25 -19 -7 -96 28 -117 53 -24 28 -11 27 21 -1 l24 -23 -19
27 c-10 15 -25 28 -31 28 -15 0 -17 17 -3 22 6 2 11 20 12 41 1 23 6 37 14 37
7 0 11 6 8 14 -3 8 2 35 10 60 9 26 15 50 14 54 -1 4 3 18 9 32 6 14 47 118
92 232 71 181 81 214 80 265 l-2 58 -7 -65 c-4 -36 -19 -91 -34 -122 -14 -31
-26 -61 -26 -66 0 -12 -70 -116 -82 -120 -4 -2 -8 -12 -8 -23 0 -11 -7 -22
-15 -25 -8 -4 -15 -12 -15 -20 0 -8 -4 -14 -10 -14 -5 0 -10 -8 -11 -17 0 -15
-2 -15 -9 2 -7 17 -9 14 -9 -13 -1 -18 -5 -31 -10 -28 -12 8 -23 -22 -14 -37
3 -7 3 -9 -2 -5 -4 4 -16 -4 -27 -17 -17 -21 -28 -25 -77 -25 -50 0 -61 4 -85
29 -29 30 -73 46 -79 28 -1 -5 -4 23 -5 64 -2 40 -5 76 -8 79 -3 3 -4 -38 -2
-90 3 -84 7 -103 35 -160 53 -104 117 -160 185 -160 15 0 53 -29 109 -83 86
-82 87 -82 73 -112 -7 -16 -13 -39 -13 -50 0 -19 0 -19 11 -1 23 40 51 66 62
57 6 -5 28 -12 48 -16 31 -6 41 -14 58 -51 27 -56 102 -122 147 -130 20 -4 51
-2 69 4 32 9 34 9 34 -13 0 -35 18 -76 42 -97 25 -21 32 -23 23 -5 -4 6 0 4 8
-6 9 -11 21 -15 32 -10 14 5 16 3 10 -7 -6 -10 0 -11 31 -6 70 13 84 27 165
166 51 88 58 106 37 94 -8 -4 -10 -3 -5 2 5 5 14 9 20 9 6 0 39 45 74 100 79
126 143 198 222 253 34 23 68 47 74 53 15 12 199 129 234 147 13 8 55 43 93
78 65 62 92 75 105 54 3 -5 20 -10 37 -10 21 0 31 6 35 20 3 11 9 20 13 20 4
0 10 11 12 25 3 14 1 25 -3 25 -5 0 -9 5 -9 10 0 6 6 10 14 10 8 0 18 5 22 12
4 7 3 8 -4 4 -7 -4 -17 3 -24 18 -6 14 -16 26 -21 26 -6 0 -7 3 -4 7 4 3 2 12
-4 20 -9 10 -8 13 5 13 9 0 16 8 16 20 0 18 -3 19 -20 10 -18 -9 -20 -8 -20
15 0 14 -4 25 -9 25 -5 0 -8 11 -6 25 1 14 -1 25 -6 25 -8 0 -19 28 -18 44 0
5 -3 12 -8 15 -4 3 -20 31 -35 61 -19 38 -26 46 -21 25z m-1204 -530 c-3 -9
-8 -14 -10 -11 -3 3 -2 9 2 15 9 16 15 13 8 -4z m780 -218 c3 -7 -3 -18 -12
-24 -14 -9 -18 -8 -18 3 0 7 4 11 9 8 4 -3 8 2 8 10 0 19 6 21 13 3z m-70 -47
c-3 -11 -9 -22 -13 -25 -11 -7 -8 29 4 37 15 10 15 11 9 -12z m-403 5 c0 -4
-98 -194 -105 -203 -5 -6 -35 11 -35 19 0 5 12 26 28 47 15 21 38 62 51 90 16
35 30 52 43 52 10 0 18 -2 18 -5z m156 -319 c0 -14 -5 -21 -9 -17 -4 4 -5 15
-1 24 9 24 12 21 10 -7z m-283 -130 c-4 -18 0 -25 17 -29 12 -3 20 -11 18 -18
-6 -17 -58 -18 -58 -2 0 7 -5 13 -11 13 -5 0 -7 5 -4 10 4 6 11 8 16 5 5 -4 9
3 9 14 0 10 -5 21 -12 23 -6 2 -8 10 -4 17 12 19 34 -5 29 -33z m77 -56 c0 -5
-4 -10 -10 -10 -5 0 -10 5 -10 10 0 6 5 10 10 10 6 0 10 -4 10 -10z"/>
<path d="M2485 4190 c4 -14 12 -29 17 -35 7 -7 8 -2 3 15 -4 14 -12 30 -17 35
-7 7 -8 2 -3 -15z"/>
<path d="M2621 4194 c0 -11 3 -14 6 -6 3 7 2 16 -1 19 -3 4 -6 -2 -5 -13z"/>
<path d="M4257 4155 c-15 -19 -27 -35 -27 -37 0 -2 11 -5 25 -6 21 -1 24 2 21
21 -2 12 1 28 7 35 5 7 8 14 6 17 -3 2 -17 -11 -32 -30z"/>
<path d="M4040 4156 c0 -2 7 -9 15 -16 9 -7 15 -8 15 -2 0 5 -7 12 -15 16 -8
3 -15 4 -15 2z"/>
<path d="M4165 4119 c-6 -9 53 -79 66 -79 14 0 -2 30 -32 60 -16 15 -31 24
-34 19z"/>
<path d="M4265 4084 c-19 -16 -19 -16 5 -9 31 9 50 25 30 25 -8 0 -24 -8 -35
-16z"/>
<path d="M6285 4080 c-3 -5 -1 -10 4 -10 6 0 11 5 11 10 0 6 -2 10 -4 10 -3 0
-8 -4 -11 -10z"/>
<path d="M3140 4063 c0 -5 7 -18 15 -29 13 -18 14 -18 8 4 -5 22 -23 41 -23
25z"/>
<path d="M6383 4048 c16 -10 77 -10 77 0 0 4 -20 7 -44 7 -25 0 -40 -3 -33 -7z"/>
<path d="M2990 3987 c0 -9 -4 -17 -10 -17 -15 0 -12 -19 5 -37 9 -8 13 -23 11
-32 -3 -9 -1 -23 5 -31 7 -10 8 6 3 55 -6 65 -14 100 -14 62z"/>
<path d="M3898 3983 c7 -3 16 -2 19 1 4 3 -2 6 -13 5 -11 0 -14 -3 -6 -6z"/>
<path d="M6376 3965 c-16 -12 -17 -15 -4 -15 9 0 18 7 22 15 7 18 6 18 -18 0z"/>
<path d="M3890 3960 c0 -5 5 -10 10 -10 6 0 10 5 10 10 0 6 -4 10 -10 10 -5 0
-10 -4 -10 -10z"/>
<path d="M2540 3950 c0 -5 5 -10 11 -10 5 0 7 5 4 10 -3 6 -8 10 -11 10 -2 0
-4 -4 -4 -10z"/>
<path d="M2520 3916 c0 -21 32 -86 42 -86 11 0 10 17 -1 25 -5 3 -12 19 -16
35 -7 32 -25 51 -25 26z"/>
<path d="M2561 3914 c0 -11 3 -14 6 -6 3 7 2 16 -1 19 -3 4 -6 -2 -5 -13z"/>
<path d="M4155 3871 c-3 -5 -1 -12 5 -16 5 -3 10 1 10 9 0 18 -6 21 -15 7z"/>
<path d="M7492 3827 c1 -35 -4 -51 -18 -63 -15 -13 -16 -15 -2 -10 9 2 19 -1
22 -9 8 -22 16 -119 20 -264 5 -145 16 -192 16 -68 0 45 4 77 10 77 6 0 10 -8
10 -18 0 -10 11 -29 25 -42 l26 -24 -16 39 c-9 22 -26 47 -37 56 -13 10 -21
30 -23 55 -1 21 -6 90 -10 153 -8 121 -24 207 -23 118z"/>
<path d="M2506 3853 c-3 -4 -6 -12 -6 -19 0 -19 48 -86 54 -76 7 11 -40 103
-48 95z"/>
<path d="M3350 3811 c0 -5 9 -7 20 -4 11 3 20 7 20 9 0 2 -9 4 -20 4 -11 0
-20 -4 -20 -9z"/>
<path d="M7434 3807 c-5 -7 -21 -20 -35 -29 -17 -12 -19 -17 -8 -17 8 -1 28
13 44 29 16 17 25 30 19 30 -5 -1 -14 -6 -20 -13z"/>
<path d="M2490 3800 c-8 -42 -7 -60 4 -60 11 0 45 -122 62 -225 2 -16 7 -37
10 -45 3 -8 8 -28 11 -45 3 -16 7 -32 9 -34 9 -9 2 78 -11 144 -7 39 -19 97
-26 130 -6 33 -15 62 -18 65 -4 3 -14 21 -24 40 -9 19 -17 33 -17 30z"/>
<path d="M3580 3771 c0 -6 4 -13 10 -16 6 -3 7 1 4 9 -7 18 -14 21 -14 7z"/>
<path d="M7098 3753 c7 -3 16 -2 19 1 4 3 -2 6 -13 5 -11 0 -14 -3 -6 -6z"/>
<path d="M7340 3742 c-14 -9 -31 -23 -38 -29 -19 -18 -34 -16 -98 12 -71 31
-94 32 -34 1 77 -40 105 -42 151 -10 22 15 42 31 45 36 7 11 3 10 -26 -10z"/>
<path d="M3033 3693 c2 -22 -1 -33 -9 -33 -7 0 -16 -5 -20 -11 -4 -8 1 -9 17
-4 38 11 42 21 24 51 l-16 29 4 -32z"/>
<path d="M5882 3700 c0 -14 2 -19 5 -12 2 6 2 18 0 25 -3 6 -5 1 -5 -13z"/>
<path d="M2460 3682 c0 -7 11 -29 24 -48 17 -25 25 -31 29 -21 3 8 -8 30 -23
48 -16 19 -29 28 -30 21z"/>
<path d="M3055 3607 c4 -22 0 -33 -17 -47 -13 -11 -17 -19 -10 -20 6 0 12 -7
12 -15 0 -11 -11 -15 -40 -15 -25 0 -40 5 -40 13 0 15 -48 19 -72 6 -19 -10
-15 -33 12 -61 13 -14 22 -15 60 -7 25 6 63 8 86 5 l41 -5 1 39 c1 22 -7 61
-18 87 -12 27 -18 36 -15 20z"/>
<path d="M7051 3584 c0 -11 3 -14 6 -6 3 7 2 16 -1 19 -3 4 -6 -2 -5 -13z"/>
<path d="M2891 3576 c-10 -12 -8 -13 8 -9 12 3 21 9 21 14 0 14 -16 11 -29 -5z"/>
<path d="M2461 3565 c0 -18 28 -61 29 -44 0 8 -7 24 -15 35 -8 10 -14 15 -14
9z"/>
<path d="M7064 3420 c0 -63 1 -89 3 -57 2 31 2 83 0 115 -2 31 -3 5 -3 -58z"/>
<path d="M3630 3470 c0 -8 5 -22 10 -30 9 -13 10 -13 10 0 0 8 -5 22 -10 30
-9 13 -10 13 -10 0z"/>
<path d="M2427 3463 c-4 -3 -7 -18 -7 -33 0 -14 -4 -30 -8 -35 -5 -6 -19 -46
-31 -90 -19 -66 -21 -87 -12 -115 l11 -35 -5 36 c-6 43 2 69 21 69 16 0 19 17
4 22 -6 2 -6 16 0 40 l11 37 24 -25 c25 -25 45 -31 45 -15 0 5 -9 13 -20 16
-11 3 -20 12 -20 20 0 7 -5 15 -11 17 -6 2 -8 14 -4 31 6 22 10 25 21 16 18
-14 18 -8 1 25 -8 14 -17 23 -20 19z"/>
<path d="M6993 3415 c0 -27 2 -38 4 -22 2 15 2 37 0 50 -2 12 -4 0 -4 -28z"/>
<path d="M3651 3400 c0 -8 4 -24 9 -35 5 -13 9 -14 9 -5 0 8 -4 24 -9 35 -5
13 -9 14 -9 5z"/>
<path d="M0 3340 c0 -28 2 -30 20 -20 23 12 25 21 8 38 -20 20 -28 14 -28 -18z"/>
<path d="M6991 3344 c0 -11 3 -14 6 -6 3 7 2 16 -1 19 -3 4 -6 -2 -5 -13z"/>
<path d="M3052 3310 c0 -14 2 -19 5 -12 2 6 2 18 0 25 -3 6 -5 1 -5 -13z"/>
<path d="M2446 3194 c-33 -82 -44 -120 -36 -128 7 -7 10 -4 10 10 0 12 13 47
29 80 29 61 56 143 48 150 -2 3 -25 -48 -51 -112z"/>
<path d="M5970 3298 c-77 -9 -144 -25 -115 -28 l20 -1 -20 -8 c-13 -5 19 -11
88 -16 60 -4 110 -5 111 -4 2 2 -2 18 -8 34 l-11 30 -65 -7z"/>
<path d="M6195 3288 c-44 -25 -47 -68 -7 -108 53 -52 139 -50 164 4 31 70 -83
146 -157 104z m70 -58 c3 -5 1 -10 -4 -10 -6 0 -11 5 -11 10 0 6 2 10 4 10 3
0 8 -4 11 -10z"/>
<path d="M3006 3282 c-2 -4 4 -8 15 -8 10 0 19 4 19 8 0 4 -6 8 -14 8 -8 0
-17 -4 -20 -8z"/>
<path d="M568 3263 c-27 -32 -31 -70 -8 -93 22 -22 29 -24 50 -10 13 8 12 11
-4 23 -19 14 -19 33 0 81 8 22 -19 21 -38 -1z"/>
<path d="M2536 3238 c-5 -16 -5 -36 0 -45 7 -16 8 -15 11 5 3 12 3 32 0 45 -3
21 -4 20 -11 -5z"/>
<path d="M4660 3230 c0 -5 7 -7 15 -4 8 4 15 8 15 10 0 2 -7 4 -15 4 -8 0 -15
-4 -15 -10z"/>
<path d="M3936 3215 c-3 -8 -1 -15 4 -15 6 0 10 7 10 15 0 8 -2 15 -4 15 -2 0
-6 -7 -10 -15z"/>
<path d="M7572 3155 c0 -21 25 -107 27 -90 0 6 -6 33 -13 60 -8 28 -14 41 -14
30z"/>
<path d="M2391 3133 c-10 -26 -10 -27 4 -9 8 11 15 23 15 28 0 15 -7 8 -19
-19z"/>
<path d="M542 3098 c-14 -14 -16 -64 -4 -72 5 -3 34 -2 65 1 47 5 57 9 57 24
0 19 -9 23 -43 19 -11 -1 -26 8 -34 19 -16 24 -24 26 -41 9z"/>
<path d="M3760 3067 c0 -4 12 -26 26 -48 14 -23 32 -60 40 -82 21 -60 56 -114
114 -177 l51 -55 -56 75 c-31 41 -76 116 -100 165 -41 85 -74 139 -75 122z"/>
<path d="M7601 3042 c-1 -13 39 -167 63 -242 27 -84 16 -17 -15 94 -37 133
-47 165 -48 148z"/>
<path d="M215 2979 c-6 -18 -8 -19 -24 -5 -27 25 -69 13 -111 -33 -21 -22 -48
-41 -59 -41 -21 0 -21 -3 -21 -265 0 -146 3 -265 6 -265 3 0 14 10 24 23 10
12 34 31 54 41 33 18 37 18 54 3 31 -28 92 -49 124 -41 30 6 31 5 25 -22 -3
-16 -1 -44 6 -61 14 -42 2 -55 -50 -57 -33 -1 -38 -5 -46 -33 -10 -32 -29 -43
-79 -43 -39 0 -58 10 -69 36 -5 14 -17 24 -29 24 -19 0 -20 -6 -20 -173 l0
-173 233 -2 c181 -3 237 -6 254 -18 31 -19 33 -18 33 16 0 21 5 30 16 30 17 0
38 18 47 40 3 10 6 6 6 -9 1 -13 -10 -39 -24 -57 -14 -18 -25 -37 -25 -43 0
-6 -5 -11 -11 -11 -6 0 -8 -8 -4 -19 3 -12 0 -21 -10 -24 -8 -4 -12 -13 -9
-21 3 -8 -2 -26 -12 -41 -9 -14 -15 -28 -12 -30 3 -3 25 24 49 60 65 95 74 86
15 -16 -45 -78 -56 -91 -88 -101 -21 -6 -38 -15 -38 -20 0 -11 7 -10 30 4 16
10 25 10 47 -4 16 -9 37 -17 48 -18 26 -3 65 10 65 21 0 15 50 10 66 -6 18
-17 34 -20 34 -5 0 6 -7 10 -15 10 -8 0 -15 4 -15 8 0 5 -17 20 -38 33 -32 22
-40 23 -62 12 -14 -7 -24 -19 -22 -28 2 -8 -2 -15 -8 -15 -6 0 -8 -4 -5 -10 3
-5 2 -10 -4 -10 -5 0 -13 5 -16 10 -3 6 -1 10 5 10 7 0 9 8 5 19 -6 19 28 92
91 197 21 36 23 45 13 74 -9 24 -9 42 1 73 16 55 25 65 53 60 17 -3 28 2 40
21 9 14 26 33 36 43 19 18 19 18 -5 19 -18 2 -29 -5 -36 -22 -6 -12 -25 -30
-43 -39 -23 -10 -39 -28 -52 -60 -10 -25 -21 -45 -25 -45 -11 0 -10 4 17 66
29 65 29 65 13 61 -15 -3 -22 28 -12 51 4 9 6 24 5 33 -1 10 8 19 21 23 13 3
31 19 40 36 10 17 22 29 27 26 15 -10 41 77 41 136 0 44 4 59 17 67 10 5 14
13 10 17 -4 4 -13 -1 -21 -11 -22 -31 -31 -10 -30 72 0 51 -3 80 -10 80 -6 0
-19 4 -28 8 -12 5 -18 3 -18 -7 0 -8 -11 -24 -25 -36 -25 -22 -25 -22 -45 -2
-23 23 -42 18 -60 -16 -13 -23 -40 -34 -40 -15 0 6 -32 9 -72 9 -60 -1 -76 -5
-90 -22 -11 -13 -21 -17 -25 -11 -14 18 -48 32 -91 40 -36 6 -45 13 -62 46
-11 21 -20 58 -20 84 0 38 -4 47 -23 54 -12 5 -26 7 -30 4 -13 -8 -37 18 -37
39 0 11 13 26 32 36 18 9 50 33 70 53 21 20 40 34 43 31 11 -11 43 30 38 49
-7 25 -20 24 -28 -2z m13 -466 c-2 -10 -10 -18 -18 -18 -8 0 -16 8 -18 18 -2
12 3 17 18 17 15 0 20 -5 18 -17z m435 -101 c47 -61 38 -73 -120 -152 -24 -12
-43 -25 -43 -29 0 -9 -58 -43 -97 -57 -25 -9 -37 -9 -49 1 -14 10 -15 17 -5
47 9 27 28 46 79 81 37 24 94 68 127 96 32 28 63 51 69 51 6 -1 24 -17 39 -38z
m-465 -402 c19 0 22 -5 22 -41 l0 -41 -37 7 c-40 7 -73 30 -73 50 0 19 24 36
45 31 11 -3 30 -6 43 -6z"/>
<path d="M3192 2900 c0 -14 2 -19 5 -12 2 6 2 18 0 25 -3 6 -5 1 -5 -13z"/>
<path d="M6124 2877 c-25 -29 -60 -92 -46 -84 5 4 13 0 16 -9 4 -10 14 -14 26
-11 11 3 23 1 26 -4 3 -5 10 -7 15 -3 5 3 17 0 26 -8 15 -11 16 -11 10 5 -4
10 -14 42 -22 72 -9 30 -20 57 -24 60 -5 2 -17 -6 -27 -18z"/>
<path d="M4567 2872 c-10 -10 -17 -32 -17 -48 0 -16 -5 -36 -10 -44 -7 -12
-10 -8 -10 14 0 24 -2 27 -15 16 -8 -7 -15 -19 -15 -26 0 -8 -3 -13 -7 -12 -5
1 -19 -4 -32 -11 -53 -29 -150 -5 -244 62 l-29 20 21 -41 c12 -23 32 -51 45
-64 22 -21 69 -89 168 -245 41 -64 134 -173 149 -173 12 0 -10 34 -83 131
-105 139 -95 174 20 68 87 -79 128 -109 119 -86 -4 11 -2 14 9 10 7 -3 14 0
14 5 0 6 17 12 37 14 l37 3 -47 44 c-25 24 -44 47 -41 52 2 4 23 1 46 -7 42
-14 272 -20 234 -5 -31 12 -3 22 58 20 56 -2 74 -18 41 -36 -9 -6 -11 -13 -5
-23 8 -12 10 -12 16 3 5 15 14 17 50 11 38 -5 43 -4 38 9 -5 14 -1 15 28 7 41
-12 58 -12 38 0 -37 21 -170 59 -225 64 -33 3 -94 8 -137 11 -98 8 -113 11
-140 29 -24 17 -34 58 -19 83 14 26 -27 92 -49 78 -5 -3 -10 1 -10 9 0 9 -5
16 -11 16 -7 0 -8 11 -4 30 8 35 4 37 -18 12z m-34 -142 c-3 -12 -8 -19 -11
-16 -5 6 5 36 12 36 2 0 2 -9 -1 -20z"/>
<path d="M3135 2853 c-19 -73 -1 -440 26 -520 23 -71 49 -15 44 96 -2 45 0 83
6 86 5 4 6 12 2 18 -7 12 -15 76 -16 145 -1 33 -5 42 -19 42 -22 0 -23 7 -3
26 17 17 20 54 5 54 -5 0 -10 18 -10 40 0 47 -24 56 -35 13z"/>
<path d="M4247 2849 c7 -7 15 -10 18 -7 3 3 -2 9 -12 12 -14 6 -15 5 -6 -5z"/>
<path d="M2343 2823 c-15 -5 -17 -23 -4 -23 5 0 11 7 15 15 3 8 4 15 3 14 -1
0 -8 -3 -14 -6z"/>
<path d="M2306 2803 c-6 -14 -5 -15 5 -6 7 7 10 15 7 18 -3 3 -9 -2 -12 -12z"/>
<path d="M1740 2767 c-7 -18 -16 -36 -18 -42 -3 -5 2 -4 10 3 15 12 33 60 26
68 -2 2 -10 -11 -18 -29z"/>
<path d="M2302 2753 c-9 -21 -20 -40 -24 -43 -4 -3 -26 -46 -49 -95 -23 -49
-48 -96 -56 -103 -7 -7 -13 -22 -13 -33 0 -11 -4 -28 -9 -38 -5 -9 -6 -23 -1
-30 5 -9 10 0 15 28 5 30 11 41 20 37 9 -3 12 0 9 9 -9 22 55 147 78 153 12 3
15 7 9 12 -15 8 28 105 55 125 18 13 18 14 1 15 -10 0 -24 -15 -35 -37z"/>
<path d="M3903 2757 c4 -10 7 -21 7 -23 0 -3 5 -2 11 2 8 4 9 -1 4 -16 -5 -15
-4 -20 4 -16 7 5 10 -1 8 -14 -1 -14 7 -28 21 -37 20 -14 22 -14 16 1 -3 9
-10 16 -16 16 -5 0 -7 9 -3 20 4 13 -3 29 -26 52 -20 20 -30 26 -26 15z"/>
<path d="M225 2750 c-3 -5 -1 -10 4 -10 6 0 11 5 11 10 0 6 -2 10 -4 10 -3 0
-8 -4 -11 -10z"/>
<path d="M1405 2749 c-4 -6 -5 -12 -2 -15 2 -3 7 2 10 11 7 17 1 20 -8 4z"/>
<path d="M1825 2739 c-11 -17 1 -21 15 -4 8 9 8 15 2 15 -6 0 -14 -5 -17 -11z"/>
<path d="M2365 2725 c-14 -13 -25 -30 -25 -37 0 -7 3 -8 8 -2 4 5 18 21 31 37
30 34 19 36 -14 2z"/>
<path d="M3535 2730 c-3 -5 -1 -10 4 -10 6 0 11 5 11 10 0 6 -2 10 -4 10 -3 0
-8 -4 -11 -10z"/>
<path d="M1765 2720 c-3 -5 -1 -10 4 -10 6 0 11 5 11 10 0 6 -2 10 -4 10 -3 0
-8 -4 -11 -10z"/>
<path d="M3591 2706 c-9 -11 -9 -15 1 -19 10 -4 10 -8 -2 -16 -12 -8 -12 -13
-2 -23 9 -9 12 -9 12 4 0 9 6 19 13 21 9 4 9 8 -2 15 -7 5 -10 15 -7 21 10 16
1 14 -13 -3z"/>
<path d="M3299 2683 c-1 -10 -1 -22 0 -27 1 -4 -6 -14 -16 -21 -10 -7 -15 -17
-10 -21 4 -4 7 -2 7 4 0 7 7 12 15 12 10 0 15 11 15 35 0 36 -9 50 -11 18z"/>
<path d="M1926 2675 c-3 -8 -1 -15 4 -15 6 0 10 7 10 15 0 8 -2 15 -4 15 -2 0
-6 -7 -10 -15z"/>
<path d="M2373 2673 c-3 -10 -8 -22 -10 -28 -3 -5 3 -1 11 9 16 20 21 36 11
36 -3 0 -8 -8 -12 -17z"/>
<path d="M2517 2683 c-15 -14 -4 -40 34 -82 22 -24 53 -63 70 -87 70 -102 27
-9 -56 120 -38 59 -38 60 -48 49z"/>
<path d="M3841 2663 c-1 -13 -6 -23 -11 -23 -16 0 0 -123 16 -133 8 -4 14 -23
14 -42 0 -22 9 -43 25 -61 21 -22 23 -30 13 -42 -7 -8 -13 -35 -13 -60 0 -25
-5 -47 -10 -49 -12 -4 -32 38 -41 87 -9 45 -22 70 -37 70 -8 0 -8 -3 -2 -8 6
-4 10 -33 10 -65 -1 -32 3 -61 7 -63 4 -3 8 -34 8 -70 0 -36 4 -63 9 -60 5 4
7 -13 5 -36 -3 -36 -2 -39 6 -18 8 21 9 18 6 -18 -5 -56 16 -67 50 -26 28 35
34 64 7 43 -15 -13 -16 -11 -10 13 4 15 3 30 -3 33 -6 4 -8 15 -5 25 3 10 1
21 -5 25 -12 7 -14 55 -2 55 10 0 32 -45 32 -65 0 -8 5 -15 10 -15 6 0 10 -7
10 -15 0 -8 5 -15 10 -15 14 0 12 21 -4 39 -16 17 -11 71 6 71 6 0 5 7 -2 15
-10 13 -10 19 4 33 19 22 20 41 4 79 -6 15 -10 37 -9 47 6 41 -11 125 -29 146
-10 12 -16 29 -13 40 6 23 3 24 -32 8 -28 -13 -38 -8 -30 14 4 10 14 14 26 11
14 -4 19 0 19 16 0 25 -20 29 -21 4 -1 -12 -4 -10 -9 7 -8 24 -8 24 -9 3z m86
-335 c-3 -8 -6 -5 -6 6 -1 11 2 17 5 13 3 -3 4 -12 1 -19z m-7 -85 c-1 -24 -2
-26 -11 -10 -5 9 -7 22 -4 27 10 17 15 11 15 -17z m-83 -70 c-3 -10 -5 -2 -5
17 0 19 2 27 5 18 2 -10 2 -26 0 -35z"/>
<path d="M3460 2650 c0 -5 -7 -10 -15 -10 -8 0 -15 -5 -15 -11 0 -5 5 -7 12
-3 8 5 9 2 4 -11 -4 -11 -2 -21 5 -26 6 -4 8 -12 4 -19 -6 -9 -9 -9 -15 0 -5
8 -9 5 -12 -8 -5 -16 -1 -21 16 -20 48 0 86 9 80 20 -4 5 0 15 7 20 9 6 3 7
-18 3 -33 -7 -33 -6 -33 34 0 23 -4 41 -10 41 -5 0 -10 -4 -10 -10z"/>
<path d="M3951 2633 c-1 -6 3 -14 8 -17 5 -4 15 -29 22 -56 7 -28 16 -50 21
-50 4 0 8 -8 8 -19 0 -10 7 -24 15 -31 8 -7 12 -16 9 -22 -3 -5 0 -15 6 -23 7
-8 9 -15 6 -15 -4 0 -1 -7 7 -15 9 -8 18 -34 22 -57 4 -24 11 -46 16 -49 13
-8 49 -110 43 -120 -3 -5 -1 -9 4 -9 12 0 34 -59 26 -71 -3 -5 0 -9 5 -9 6 0
11 -10 11 -23 0 -13 4 -27 9 -33 5 -5 11 -20 13 -33 1 -14 9 -26 16 -29 16 -5
11 15 -40 168 -21 63 -45 135 -53 160 -49 161 -133 352 -152 345 -6 -2 -14 1
-17 8 -3 9 -5 9 -5 0z"/>
<path d="M1996 2608 c-7 -13 -29 -48 -48 -78 -34 -55 -62 -120 -54 -127 2 -3
7 6 11 19 6 21 65 126 103 186 8 12 12 22 8 22 -3 0 -12 -10 -20 -22z"/>
<path d="M4305 2601 c4 -13 29 -69 55 -125 120 -258 200 -438 200 -452 0 -15
51 -77 57 -70 3 2 -2 15 -11 28 -8 13 -36 70 -61 128 -75 173 -87 197 -168
359 -43 86 -75 145 -72 132z"/>
<path d="M2090 2581 c0 -6 5 -13 10 -16 6 -3 10 1 10 9 0 9 -4 16 -10 16 -5 0
-10 -4 -10 -9z"/>
<path d="M3765 2561 c-3 -5 -1 -12 5 -16 5 -3 10 1 10 9 0 18 -6 21 -15 7z"/>
<path d="M2059 2543 c-13 -16 -12 -17 4 -4 9 7 17 15 17 17 0 8 -8 3 -21 -13z"/>
<path d="M3282 2491 c5 -36 10 -86 12 -111 4 -56 3 -54 21 -36 17 17 20 30 5
21 -5 -3 -10 1 -10 9 0 8 5 18 10 21 11 7 5 47 -13 83 -9 18 -8 25 2 31 19 12
9 44 -14 46 -20 1 -21 -2 -13 -64z"/>
<path d="M3601 2544 c0 -11 3 -14 6 -6 3 7 2 16 -1 19 -3 4 -6 -2 -5 -13z"/>
<path d="M3557 2544 c-13 -13 -7 -24 14 -24 11 0 19 5 17 12 -5 14 -22 21 -31
12z"/>
<path d="M2306 2511 c-9 -16 -16 -34 -16 -40 0 -5 -14 -32 -31 -60 -17 -27
-29 -55 -27 -62 2 -7 26 31 52 85 26 53 46 100 43 103 -3 3 -13 -9 -21 -26z"/>
<path d="M3434 2508 c-11 -17 -7 -140 5 -186 6 -21 13 -63 16 -92 3 -29 11
-60 18 -68 8 -11 8 -14 0 -9 -6 4 -14 3 -18 -3 -3 -6 1 -13 10 -16 11 -5 15
-16 13 -37 -3 -26 1 -30 22 -32 29 -4 28 -17 18 183 -3 73 -2 82 14 82 10 0
18 5 18 11 0 6 -9 9 -20 6 -15 -4 -22 1 -26 20 -4 16 -2 28 7 34 11 7 12 12 2
29 -7 11 -13 27 -13 36 0 12 -3 14 -13 6 -8 -7 -17 -7 -30 2 -25 19 -22 21 30
21 28 0 48 5 51 13 5 16 -94 17 -104 0z"/>
<path d="M3636 2503 c-3 -10 -9 -24 -12 -31 -4 -7 1 -11 13 -10 10 2 19 -1 20
-7 2 -5 -7 -10 -19 -10 -24 0 -32 -13 -20 -32 7 -10 14 -10 35 0 35 16 38 25
18 70 -17 41 -26 46 -35 20z"/>
<path d="M4270 2496 c0 -8 4 -17 9 -20 5 -4 7 3 4 14 -6 23 -13 26 -13 6z"/>
<path d="M2133 2492 c-14 -9 -28 -62 -16 -62 8 0 36 61 30 66 -1 2 -8 0 -14
-4z"/>
<path d="M4110 2490 c0 -14 29 -70 36 -70 2 0 -2 13 -10 29 -9 16 -13 31 -10
34 3 3 1 8 -5 12 -6 3 -11 1 -11 -5z"/>
<path d="M3560 2475 c0 -8 7 -15 15 -15 8 0 15 7 15 15 0 8 -7 15 -15 15 -8 0
-15 -7 -15 -15z"/>
<path d="M797 2473 c-4 -3 -7 -11 -7 -17 0 -6 5 -5 12 2 6 6 9 14 7 17 -3 3
-9 2 -12 -2z"/>
<path d="M5190 2450 c8 -5 20 -10 25 -10 6 0 3 5 -5 10 -8 5 -19 10 -25 10 -5
0 -3 -5 5 -10z"/>
<path d="M3272 2430 c0 -14 2 -19 5 -12 2 6 2 18 0 25 -3 6 -5 1 -5 -13z"/>
<path d="M5231 2436 c7 -7 132 -46 143 -45 6 0 -20 11 -59 24 -67 23 -93 30
-84 21z"/>
<path d="M2087 2416 c-4 -10 -3 -15 3 -11 6 3 10 1 10 -5 0 -6 5 -8 10 -5 6 3
10 11 10 16 0 6 -4 8 -9 5 -5 -4 -11 -1 -13 6 -3 7 -7 5 -11 -6z"/>
<path d="M2227 2413 c-4 -3 -7 -11 -7 -17 0 -6 5 -5 12 2 6 6 9 14 7 17 -3 3
-9 2 -12 -2z"/>
<path d="M4302 2390 c3 -8 15 -45 27 -82 13 -37 27 -71 33 -75 8 -4 9 0 4 13
-5 10 -19 48 -32 83 -13 35 -26 66 -30 70 -4 3 -5 -1 -2 -9z"/>
<path d="M6337 2387 c-3 -8 1 -14 8 -14 7 0 11 6 8 14 -3 7 -6 13 -8 13 -2 0
-5 -6 -8 -13z"/>
<path d="M1601 2389 c-1 -4 -8 -23 -16 -43 -8 -20 -13 -36 -10 -36 9 0 36 62
31 73 -2 7 -5 9 -5 6z"/>
<path d="M5419 2375 c18 -8 36 -15 40 -15 13 1 -45 29 -59 29 -8 0 0 -6 19
-14z"/>
<path d="M3620 2374 c0 -3 7 -12 15 -21 20 -19 32 -9 15 12 -12 15 -30 20 -30
9z"/>
<path d="M4190 2350 c12 -16 24 -30 26 -30 3 0 -4 14 -16 30 -12 17 -24 30
-26 30 -3 0 4 -13 16 -30z"/>
<path d="M3677 2333 c-4 -3 -7 -11 -7 -17 0 -6 5 -5 12 2 6 6 9 14 7 17 -3 3
-9 2 -12 -2z"/>
<path d="M5745 2320 c11 -5 27 -9 35 -9 9 0 8 4 -5 9 -11 5 -27 9 -35 9 -9 0
-8 -4 5 -9z"/>
<path d="M1150 2305 c-19 -8 -49 -14 -66 -14 -18 -1 -34 -7 -37 -15 -3 -8 -24
-17 -47 -21 -28 -5 -54 -19 -77 -41 -19 -19 -41 -34 -49 -34 -9 0 -13 -4 -10
-9 4 -5 -7 -12 -24 -16 -16 -4 -30 -13 -30 -20 0 -7 -11 -22 -25 -33 -13 -11
-22 -22 -19 -25 3 -2 -11 -15 -30 -27 -67 -41 -98 -100 -53 -100 25 0 33 -30
16 -62 -6 -12 -6 -18 1 -18 5 0 10 4 10 8 0 5 7 9 16 9 11 0 14 -7 10 -21 -6
-26 3 -66 15 -66 5 0 9 13 9 29 0 16 7 35 16 42 16 13 58 73 79 114 6 11 23
26 38 33 16 8 31 21 34 30 4 10 15 23 25 30 10 7 18 19 18 27 0 20 117 115
141 115 11 0 34 7 51 16 20 11 44 14 72 10 22 -3 84 -6 136 -8 53 -1 106 -8
120 -15 14 -7 30 -13 36 -13 6 0 17 -7 24 -15 7 -8 21 -15 32 -15 19 0 76 -34
89 -52 3 -5 13 -6 22 -2 12 4 17 1 17 -10 0 -17 45 -41 69 -37 7 1 10 -2 7 -7
-8 -13 30 -46 43 -37 7 3 11 -3 11 -15 0 -12 21 -41 50 -69 28 -26 50 -54 50
-62 0 -11 2 -11 10 1 8 13 10 13 10 -1 0 -9 16 -43 35 -75 33 -54 65 -139 65
-171 0 -7 4 -13 9 -13 5 0 17 -3 27 -7 13 -5 16 -3 11 10 -5 14 0 17 26 18 27
2 28 2 7 6 -14 3 -29 9 -35 15 -7 7 -3 8 13 3 13 -4 22 -2 22 4 0 6 -4 11 -8
11 -15 0 -39 68 -30 84 6 11 4 14 -11 11 -14 -3 -18 1 -14 11 3 8 -1 14 -8 14
-7 0 -9 3 -6 7 4 3 -12 24 -35 46 -37 35 -40 41 -25 52 20 14 12 25 -17 25
-17 0 -18 2 -6 10 12 8 10 10 -10 10 l-24 0 21 15 c31 21 95 113 90 127 -2 7
-11 -1 -20 -18 -28 -54 -67 -94 -90 -93 -17 1 -18 2 -4 6 23 6 22 19 -3 26
-24 6 -42 47 -28 64 6 8 2 12 -14 15 -13 2 -27 13 -32 24 -8 18 -18 21 -55 20
-38 -1 -48 3 -55 20 -10 21 -82 48 -91 34 -12 -19 -128 27 -138 54 -4 9 -14
12 -25 9 -14 -3 -22 1 -27 17 -4 13 -12 19 -23 16 -15 -5 -124 -8 -211 -7 -18
1 -39 7 -45 15 -9 12 -17 12 -46 1z m-200 -100 c-13 -14 -26 -22 -29 -19 -3 3
5 14 19 24 34 27 38 25 10 -5z"/>
<path d="M2227 2307 c-3 -8 -1 -20 4 -28 6 -10 9 -7 9 14 0 29 -5 35 -13 14z"/>
<path d="M1485 2290 c-3 -5 -1 -10 4 -10 6 0 11 5 11 10 0 6 -2 10 -4 10 -3 0
-8 -4 -11 -10z"/>
<path d="M2389 2248 c-100 -94 -143 -168 -137 -234 l4 -39 13 30 c7 17 14 42
15 57 1 35 16 37 16 3 0 -14 4 -25 8 -25 4 0 8 21 7 47 0 49 20 83 49 83 8 0
18 5 22 12 5 8 2 9 -9 5 -10 -3 -17 -2 -17 3 0 6 5 11 10 11 6 1 16 2 23 3 6
0 12 10 12 20 0 11 6 21 13 24 6 2 12 10 12 17 0 7 6 16 13 18 6 3 7 6 2 6 -6
1 -31 -18 -56 -41z m-79 -138 c0 -5 -4 -10 -10 -10 -5 0 -10 5 -10 10 0 6 5
10 10 10 6 0 10 -4 10 -10z"/>
<path d="M3641 2254 c0 -11 3 -14 6 -6 3 7 2 16 -1 19 -3 4 -6 -2 -5 -13z"/>
<path d="M2267 2231 c-4 -18 -7 -43 -6 -55 1 -11 5 -1 10 24 5 25 7 49 6 55
-2 5 -7 -5 -10 -24z"/>
<path d="M6669 2162 c-36 -41 -40 -51 -35 -82 12 -78 101 -107 150 -49 51 61
24 161 -46 173 -23 4 -35 -3 -69 -42z m91 -76 c0 -2 -8 -10 -17 -17 -16 -13
-17 -12 -4 4 13 16 21 21 21 13z"/>
<path d="M2457 2173 c-3 -15 0 -23 7 -20 6 3 11 -8 12 -25 1 -20 -2 -25 -7
-16 -6 8 -9 -1 -9 -27 0 -22 -7 -67 -15 -100 -25 -101 -24 -101 48 -110 69 -8
487 -14 487 -7 0 3 -14 29 -31 59 -35 61 -60 75 -134 78 -99 4 -165 16 -165
30 0 18 -53 58 -102 79 -32 13 -38 20 -38 45 0 17 -3 31 -7 32 -5 0 -15 2 -25
4 -10 2 -18 -5 -21 -22z"/>
<path d="M4371 2176 c7 -15 17 -22 26 -19 11 5 11 9 -3 24 -24 26 -36 24 -23
-5z"/>
<path d="M6246 2101 c110 -55 213 -112 229 -126 17 -15 24 -24 18 -20 -7 3
-13 4 -13 1 0 -11 165 -106 184 -106 4 0 -11 26 -32 58 -21 31 -67 103 -101
160 -35 56 -66 102 -69 102 -4 0 -29 3 -57 5 -135 13 -297 25 -326 25 -24 0
13 -22 167 -99z m124 47 c102 -25 99 -23 93 -49 -5 -19 -10 -20 -57 -14 -28 4
-61 14 -73 22 -12 8 -27 12 -33 8 -5 -3 -10 -1 -10 4 0 6 -9 11 -20 11 -21 0
-110 38 -110 47 0 9 123 -8 210 -29z"/>
<path d="M1785 2160 c3 -5 8 -10 11 -10 2 0 4 5 4 10 0 6 -5 10 -11 10 -5 0
-7 -4 -4 -10z"/>
<path d="M2192 2135 c0 -16 2 -22 5 -12 2 9 2 23 0 30 -3 6 -5 -1 -5 -18z"/>
<path d="M1945 2110 c-3 -5 1 -10 9 -10 8 0 18 5 21 10 3 6 -1 10 -9 10 -8 0
-18 -4 -21 -10z"/>
<path d="M1978 2097 c-28 -11 -38 -27 -17 -27 5 0 7 -6 3 -12 -4 -7 7 0 24 16
43 40 42 44 -10 23z"/>
<path d="M3957 2074 c-10 -11 -9 -54 2 -54 6 0 12 4 15 9 8 12 -8 54 -17 45z"/>
<path d="M1927 2049 c7 -7 15 -10 18 -7 3 3 -2 9 -12 12 -14 6 -15 5 -6 -5z"/>
<path d="M4392 2028 c2 -6 15 -18 29 -27 l24 -15 -24 27 c-26 29 -35 34 -29
15z"/>
<path d="M2166 1984 c-4 -20 -5 -38 -3 -40 3 -3 8 11 11 32 4 20 5 38 3 40 -3
3 -8 -11 -11 -32z"/>
<path d="M1700 1970 c0 -5 5 -10 11 -10 5 0 7 5 4 10 -3 6 -8 10 -11 10 -2 0
-4 -4 -4 -10z"/>
<path d="M3927 1966 c-3 -8 1 -22 8 -33 13 -17 14 -16 15 9 0 30 -15 46 -23
24z"/>
<path d="M1615 1960 c-4 -6 -11 -8 -16 -5 -5 4 -9 -1 -9 -9 0 -20 10 -20 35
-3 11 9 14 16 7 21 -6 3 -13 2 -17 -4z"/>
<path d="M2285 1963 c-26 -6 -45 -31 -45 -59 0 -18 5 -21 30 -20 17 1 35 8 40
16 12 18 13 70 3 69 -5 -1 -17 -3 -28 -6z"/>
<path d="M3880 1945 c0 -9 5 -15 11 -13 6 2 11 8 11 13 0 5 -5 11 -11 13 -6 2
-11 -4 -11 -13z"/>
<path d="M4236 1917 c3 -10 9 -15 12 -12 3 3 0 11 -7 18 -10 9 -11 8 -5 -6z"/>
<path d="M1542 1911 c-8 -5 -12 -16 -10 -25 2 -12 6 -10 15 9 6 14 10 25 10
25 -1 0 -8 -4 -15 -9z"/>
<path d="M2132 1874 c-13 -25 -21 -49 -18 -51 7 -7 48 76 44 88 -2 6 -14 -11
-26 -37z"/>
<path d="M3864 1897 c-4 -10 -2 -23 3 -28 14 -14 24 13 13 32 -7 11 -10 10
-16 -4z"/>
<path d="M647 1871 c-3 -14 0 -21 8 -21 18 0 28 -17 19 -32 -13 -21 -11 -62 5
-85 22 -30 34 -29 49 7 13 28 12 33 -24 83 -51 72 -51 71 -57 48z"/>
<path d="M1500 1831 c0 -25 6 -27 13 -6 4 8 2 17 -3 20 -6 4 -10 -3 -10 -14z"/>
<path d="M2146 1813 c-16 -20 -23 -34 -16 -31 16 5 56 56 49 62 -3 3 -18 -11
-33 -31z"/>
<path d="M4620 1820 c0 -5 7 -10 16 -10 8 0 12 5 9 10 -3 6 -10 10 -16 10 -5
0 -9 -4 -9 -10z"/>
<path d="M4665 1800 c3 -5 8 -10 11 -10 2 0 4 5 4 10 0 6 -5 10 -11 10 -5 0
-7 -4 -4 -10z"/>
<path d="M190 1791 l-25 -7 25 -8 c48 -16 78 -16 84 -1 3 8 0 15 -7 15 -7 0
-21 2 -32 4 -11 3 -31 1 -45 -3z"/>
<path d="M387 1793 c-26 -4 -27 -6 -11 -18 14 -9 24 -10 42 -2 17 8 28 8 42 0
21 -13 31 -7 23 13 -5 14 -35 16 -96 7z"/>
<path d="M2226 1787 c-2 -6 -12 -45 -21 -86 -18 -78 -48 -156 -69 -181 -7 -8
-16 -27 -20 -41 -6 -26 -4 -27 47 -32 84 -8 94 3 101 120 14 209 13 215 -12
224 -16 6 -24 5 -26 -4z m-69 -323 c-3 -3 -12 -4 -19 -1 -8 3 -5 6 6 6 11 1
17 -2 13 -5z"/>
<path d="M1520 1766 c0 -14 5 -26 10 -26 6 0 10 9 10 19 0 11 -4 23 -10 26 -6
4 -10 -5 -10 -19z"/>
<path d="M2396 1693 c-24 -116 -30 -191 -17 -207 6 -7 12 -27 13 -45 2 -27 6
-31 23 -27 11 3 94 8 185 11 204 7 231 11 223 30 -3 9 8 27 26 44 17 16 31 36
31 43 0 22 32 47 70 54 42 9 120 52 127 71 3 8 -2 31 -12 52 l-17 38 -111 1
c-62 1 -186 6 -277 12 -91 5 -183 10 -205 10 l-41 0 -18 -87z"/>
<path d="M1869 1765 c-1 -5 0 -21 1 -35 2 -21 0 -22 -14 -11 -11 9 -16 10 -16
2 0 -6 -6 -11 -14 -11 -8 0 -16 -6 -19 -14 -4 -9 0 -12 13 -9 15 4 18 1 13
-15 -3 -11 2 -25 12 -33 9 -8 25 -22 36 -31 14 -14 19 -15 19 -4 0 7 -7 19
-15 26 -14 12 -13 15 5 32 11 10 20 25 20 33 0 17 -39 84 -41 70z"/>
<path d="M160 1676 c0 -7 -3 -28 -7 -46 l-6 -33 21 21 c25 25 29 57 7 66 -9 3
-15 0 -15 -8z"/>
<path d="M5440 1660 c0 -5 -7 -10 -15 -10 -8 0 -15 -5 -15 -12 0 -6 -3 -9 -6
-5 -8 8 -33 -16 -27 -25 2 -5 -1 -8 -6 -8 -6 0 -11 -7 -11 -15 0 -18 -32 -87
-45 -98 -6 -5 -2 -7 9 -5 12 2 23 15 28 33 4 17 28 54 53 84 41 48 54 71 40
71 -3 0 -5 -4 -5 -10z"/>
<path d="M240 1641 c0 -26 35 -36 61 -18 l21 15 -20 11 c-33 18 -62 14 -62 -8z"/>
<path d="M2144 1620 c-17 -17 -25 -19 -47 -11 -17 7 -28 7 -32 1 -10 -16 6
-31 26 -25 14 5 17 3 13 -10 -4 -9 -12 -14 -18 -12 -8 3 -11 -12 -11 -47 0
-46 1 -50 16 -36 11 11 13 22 8 38 -7 18 -5 22 10 22 10 0 24 6 30 14 10 12 8
14 -11 10 -20 -5 -21 -4 -6 6 21 13 62 70 51 70 -5 0 -18 -9 -29 -20z"/>
<path d="M355 1610 c-8 -27 3 -42 25 -35 10 3 36 -1 59 -9 23 -7 41 -10 41 -5
0 5 -5 9 -10 9 -6 0 -8 11 -4 27 6 22 4 25 -10 20 -47 -18 -66 -19 -72 -3 -8
22 -21 20 -29 -4z"/>
<path d="M620 1600 c0 -6 7 -10 15 -10 8 0 15 2 15 4 0 2 -7 6 -15 10 -8 3
-15 1 -15 -4z"/>
<path d="M546 1593 c-3 -3 -6 -21 -6 -38 0 -33 25 -65 51 -65 21 0 60 -30 54
-41 -4 -5 1 -9 9 -9 9 0 16 4 16 8 0 5 9 18 21 31 12 13 19 30 16 41 -3 11 0
21 7 24 7 3 7 5 -1 5 -7 1 -13 11 -13 24 0 16 -3 18 -9 8 -6 -8 -16 -11 -31
-6 -18 6 -22 4 -17 -7 4 -11 -1 -14 -21 -11 l-27 4 28 -16 c15 -9 27 -20 27
-26 0 -6 4 -8 9 -5 5 3 11 -4 14 -16 7 -26 -1 -38 -12 -20 -4 8 -31 24 -60 37
-50 24 -61 41 -40 62 6 6 7 13 1 17 -5 3 -12 3 -16 -1z"/>
<path d="M3121 1590 c0 -8 4 -22 9 -30 12 -18 12 -2 0 25 -6 13 -9 15 -9 5z"/>
<path d="M5702 1584 c-25 -17 -75 -37 -68 -26 2 4 -23 9 -56 10 -49 2 -72 -3
-115 -23 -29 -15 -53 -31 -53 -36 0 -5 14 -2 32 7 25 13 47 15 102 10 38 -4
74 -10 80 -15 12 -10 95 -29 161 -37 27 -3 35 -2 26 5 -8 5 -16 21 -18 35 -6
41 22 31 34 -11 l11 -38 -2 35 c-1 31 2 35 24 35 29 0 38 26 16 44 -23 19
-149 22 -174 5z"/>
<path d="M588 1573 c7 -3 16 -2 19 1 4 3 -2 6 -13 5 -11 0 -14 -3 -6 -6z"/>
<path d="M1765 1571 c-6 -11 9 -23 19 -14 9 9 7 23 -3 23 -6 0 -12 -4 -16 -9z"/>
<path d="M1802 1563 c2 -10 11 -19 21 -21 23 -5 21 10 -4 26 -18 12 -20 11
-17 -5z"/>
<path d="M1883 1573 c26 -7 20 -21 -10 -25 -19 -2 -29 -10 -31 -23 -3 -19 -2
-19 11 -2 17 20 47 22 66 5 11 -11 12 -8 6 12 -9 28 -23 40 -45 39 -11 -1 -10
-3 3 -6z"/>
<path d="M1876 1507 c3 -10 9 -15 12 -12 3 3 0 11 -7 18 -10 9 -11 8 -5 -6z"/>
<path d="M1936 1467 c3 -10 9 -15 12 -12 3 3 0 11 -7 18 -10 9 -11 8 -5 -6z"/>
<path d="M7355 1446 c11 -8 23 -12 28 -9 13 8 -3 23 -26 23 -20 0 -20 0 -2
-14z"/>
<path d="M3150 1441 c0 -5 6 -14 14 -20 12 -10 13 -8 9 8 -5 21 -23 30 -23 12z"/>
<path d="M7450 1424 c20 -25 64 -62 114 -98 34 -23 30 -17 -21 32 -65 63 -124
105 -93 66z"/>
<path d="M2287 1424 c-11 -11 3 -24 24 -24 12 0 19 5 17 13 -5 14 -31 21 -41
11z"/>
<path d="M7420 1396 c0 -8 5 -18 10 -21 6 -3 10 1 10 9 0 8 -4 18 -10 21 -5 3
-10 -1 -10 -9z"/>
<path d="M1901 1345 c1 -19 18 -51 18 -35 0 8 -4 22 -9 30 -5 8 -9 11 -9 5z"/>
<path d="M4526 1288 c-4 -35 -9 -75 -12 -90 -3 -16 -1 -28 4 -28 9 0 26 169
18 177 -2 2 -7 -24 -10 -59z"/>
<path d="M7650 1242 c0 -5 7 -15 15 -22 8 -7 15 -8 15 -2 0 5 -7 15 -15 22 -8
7 -15 8 -15 2z"/>
<path d="M5013 1078 c4 -58 11 -116 16 -129 8 -21 10 -19 16 24 5 31 3 58 -4
73 -6 14 -11 47 -11 74 0 27 -5 52 -12 56 -8 5 -10 -19 -5 -98z"/>
<path d="M195 1111 c-23 -22 -114 -71 -132 -71 -6 0 -15 -4 -18 -10 -4 -6 10
-10 36 -10 23 0 39 3 36 7 -4 4 14 18 39 32 26 14 54 36 62 49 18 27 4 29 -23
3z"/>
<path d="M1920 1123 c0 -5 5 -15 10 -23 8 -12 10 -11 10 8 0 12 -4 22 -10 22
-5 0 -10 -3 -10 -7z"/>
<path d="M2000 1105 c0 -21 5 -25 31 -25 17 0 61 -13 99 -30 128 -56 104 -29
-42 50 -71 37 -88 38 -88 5z"/>
<path d="M4220 1089 c-34 -11 -43 -17 -24 -14 31 4 109 34 89 33 -5 0 -35 -8
-65 -19z"/>
<path d="M4103 1050 c-18 -11 -33 -22 -33 -25 0 -2 16 5 35 16 19 12 35 23 35
25 0 6 -3 5 -37 -16z"/>
<path d="M4033 1023 c4 -4 -7 -15 -25 -25 -26 -15 -28 -17 -8 -12 14 4 33 12
43 19 17 12 17 13 0 19 -9 4 -14 4 -10 -1z"/>
<path d="M3759 955 c35 -19 72 -42 82 -51 17 -15 19 -15 36 2 15 15 15 17 2
12 -9 -4 -29 1 -45 9 -79 43 -120 63 -129 63 -5 0 19 -16 54 -35z"/>
<path d="M3147 970 c-20 -4 -41 -10 -45 -15 -4 -4 3 -5 14 -1 12 4 63 8 114
11 72 3 106 -1 156 -16 35 -11 66 -24 69 -29 3 -6 11 -10 17 -10 30 0 -22 32
-82 50 -68 20 -169 25 -243 10z"/>
<path d="M3917 940 c-9 -11 -13 -20 -7 -20 5 0 14 9 20 20 6 11 9 20 8 20 -2
0 -11 -9 -21 -20z"/>
<path d="M3507 920 c42 -67 102 -137 121 -142 22 -6 84 13 88 27 2 6 -22 26
-52 45 -29 19 -54 38 -54 42 0 4 -7 8 -16 8 -8 0 -36 12 -62 27 l-47 28 22
-35z"/>
<path d="M3567 929 c7 -7 15 -10 18 -7 3 3 -2 9 -12 12 -14 6 -15 5 -6 -5z"/>
<path d="M3770 915 c14 -8 30 -14 35 -14 6 0 -1 6 -15 14 -14 8 -29 14 -35 14
-5 0 1 -6 15 -14z"/>
<path d="M3630 895 c0 -2 10 -10 23 -16 20 -11 21 -11 8 4 -13 16 -31 23 -31
12z"/>
<path d="M3680 875 c0 -8 42 -44 51 -45 4 0 10 7 13 16 3 8 2 12 -4 9 -5 -3
-21 2 -35 11 -14 9 -25 13 -25 9z"/>
<path d="M3775 870 c-16 -7 -17 -9 -3 -9 9 -1 20 4 23 9 7 11 7 11 -20 0z"/>
<path d="M1280 803 c0 -19 17 -43 31 -43 4 0 9 7 12 14 4 10 1 13 -9 9 -11 -4
-15 0 -12 12 2 10 -3 20 -9 22 -8 3 -13 -3 -13 -14z"/>
<path d="M686 771 c-4 -6 -5 -11 -1 -11 3 0 1 -9 -5 -20 -13 -23 -3 -25 25 -5
17 14 18 17 3 31 -11 11 -18 12 -22 5z"/>
<path d="M2430 716 c0 -2 11 -6 25 -8 14 -3 25 -1 25 3 0 5 -11 9 -25 9 -14 0
-25 -2 -25 -4z"/>
<path d="M2645 680 c-3 -5 0 -10 9 -10 8 0 16 -6 19 -12 2 -7 8 -10 12 -6 8 8
-12 38 -26 38 -4 0 -11 -4 -14 -10z"/>
<path d="M2840 671 c0 -9 41 -23 48 -16 2 2 1 8 -3 14 -8 13 -45 15 -45 2z"/>
<path d="M3320 671 c0 -5 5 -13 10 -16 6 -3 10 -2 10 4 0 5 -4 13 -10 16 -5 3
-10 2 -10 -4z"/>
<path d="M3653 663 c9 -2 25 -2 35 0 9 3 1 5 -18 5 -19 0 -27 -2 -17 -5z"/>
<path d="M2050 481 c0 -5 7 -11 15 -15 8 -3 15 -1 15 3 0 5 -7 11 -15 15 -8 3
-15 1 -15 -3z"/>
<path d="M3406 423 c-6 -14 -5 -15 5 -6 7 7 10 15 7 18 -3 3 -9 -2 -12 -12z"/>
<path d="M1012 399 c2 -7 10 -15 17 -17 8 -3 12 1 9 9 -2 7 -10 15 -17 17 -8
3 -12 -1 -9 -9z"/>
<path d="M3381 348 c-13 -50 -14 -50 -27 -27 -16 29 -17 25 -5 -18 7 -26 7
-31 -5 -26 -8 3 -14 1 -14 -5 0 -5 7 -12 15 -16 21 -8 19 -24 -5 -31 -18 -6
-20 -15 -19 -63 0 -31 5 -81 10 -109 10 -53 11 -53 48 -53 37 0 39 1 44 41 3
23 2 58 -1 78 l-7 36 -6 -40 c-5 -30 -7 -19 -8 45 -1 47 -3 108 -4 135 -1 28
2 62 7 78 5 16 4 27 -1 27 -5 0 -15 -23 -22 -52z"/>
<path d="M2867 236 c-10 -71 -9 -106 6 -106 8 0 11 16 9 52 -5 97 -7 104 -15
54z"/>
<path d="M2903 210 c0 -30 2 -43 4 -27 2 15 2 39 0 55 -2 15 -4 2 -4 -28z"/>
<path d="M2470 225 c0 -8 2 -15 4 -15 2 0 6 7 10 15 3 8 1 15 -4 15 -6 0 -10
-7 -10 -15z"/>
<path d="M2732 220 c0 -14 2 -19 5 -12 2 6 2 18 0 25 -3 6 -5 1 -5 -13z"/>
<path d="M2932 190 c0 -19 2 -27 5 -17 2 9 2 25 0 35 -3 9 -5 1 -5 -18z"/>
<path d="M3463 163 c10 -9 67 -10 67 0 0 4 -16 7 -37 7 -20 0 -33 -3 -30 -7z"/>
<path d="M2900 130 c0 -5 5 -10 10 -10 6 0 10 5 10 10 0 6 -4 10 -10 10 -5 0
-10 -4 -10 -10z"/>
<path d="M2940 120 c0 -5 5 -10 10 -10 6 0 10 5 10 10 0 6 -4 10 -10 10 -5 0
-10 -4 -10 -10z"/>
<path d="M2210 110 c-8 -5 -12 -12 -9 -15 4 -3 12 1 19 10 14 17 11 19 -10 5z"/>
<path d="M2765 78 c4 -13 13 -28 21 -34 8 -6 14 -17 14 -25 0 -12 -2 -12 -9
-1 -9 15 -17 15 -42 1 -13 -7 -15 -4 -11 16 4 23 -12 36 -20 16 -1 -4 -21 -18
-43 -29 -38 -20 -39 -21 -12 -22 15 0 27 4 27 9 0 5 7 11 14 14 10 4 13 1 9
-9 -4 -11 6 -14 50 -14 l55 0 -9 42 c-12 51 -16 58 -35 58 -11 0 -14 -6 -9
-22z"/>
<path d="M2323 82 c-7 -4 -19 -24 -28 -45 -15 -36 -15 -37 7 -37 13 0 37 11
53 25 29 24 30 25 8 31 -12 3 -23 12 -25 20 -2 8 -8 10 -15 6z"/>
<path d="M2840 43 c1 -22 21 -35 61 -39 24 -2 37 -1 29 2 -8 4 -32 15 -52 26
-21 10 -38 15 -38 11z"/>
<path d="M3242 21 c7 -12 22 -21 33 -21 21 0 16 6 -28 31 -16 9 -17 8 -5 -10z"/>
<path d="M3103 3 c9 -2 23 -2 30 0 6 3 -1 5 -18 5 -16 0 -22 -2 -12 -5z"/>
</g>
</svg>
